<svg xmlns="http://www.w3.org/2000/svg" xmlns:xlink="http://www.w3.org/1999/xlink" contentStyleType="text/css" data-diagram-type="ACTIVITY" height="946px" preserveAspectRatio="none" style="width:1124px;height:946px;background:#FFFFFF;" version="1.1" viewBox="0 0 1124 946" width="1124px" zoomAndPan="magnify"><title>AD-1 Holiday-allowance determination for worker W, week (BR-06 / BR-07)</title><defs/><g><text fill="#000000" font-family="Helvetica" font-size="14" font-weight="bold" lengthAdjust="spacing" textLength="492.4336" x="314.495" y="30.7803">AD-1 Holiday-allowance determination for worker W, week (BR-06 / BR-07)</text><ellipse cx="359.4609" cy="55" fill="#222222" rx="10" ry="10" style="stroke:#222222;stroke-width:1;"/><rect fill="#FFFFFF" height="32" rx="12.5" ry="12.5" style="stroke:#1C2230;stroke-width:0.5;" width="398.7734" x="160.0742" y="85"/><text fill="#1C2230" font-family="Helvetica" font-size="12" lengthAdjust="spacing" textLength="378.7734" x="170.0742" y="104.2402">contractHours := sum of W's fixed-schedule hours for the week (BR-06)</text><polygon fill="#FFFFFF" points="296.7568,137,422.165,137,434.165,149,422.165,161,296.7568,161,284.7568,149,296.7568,137" style="stroke:#1C2230;stroke-width:0.5;"/><text fill="#1C2230" font-family="Helvetica" font-size="12" lengthAdjust="spacing" textLength="125.4082" x="296.7568" y="152.2402">contractHours &gt;= 15 h?</text><text fill="#000000" font-family="Helvetica" font-size="12" lengthAdjust="spacing" textLength="13.3477" x="271.4092" y="146.2402">no</text><text fill="#000000" font-family="Helvetica" font-size="12" lengthAdjust="spacing" textLength="18.6738" x="434.165" y="146.2402">yes</text><rect fill="#FFFFFF" height="32" rx="12.5" ry="12.5" style="stroke:#1C2230;stroke-width:0.5;" width="139.0742" x="11" y="171"/><text fill="#1C2230" font-family="Helvetica" font-size="12" lengthAdjust="spacing" textLength="119.0742" x="21" y="190.2402">holidayEligible := false</text><rect fill="#FFFFFF" height="32" rx="12.5" ry="12.5" style="stroke:#1C2230;stroke-width:0.5;" width="113.7207" x="23.6768" y="223"/><text fill="#1C2230" font-family="Helvetica" font-size="12" lengthAdjust="spacing" textLength="93.7207" x="33.6768" y="242.2402">holidayHours := 0</text><ellipse cx="80.5371" cy="298" fill="none" rx="11" ry="11" style="stroke:#222222;stroke-width:1;"/><ellipse cx="80.5371" cy="298" fill="#222222" rx="6" ry="6" style="stroke:#222222;stroke-width:1;"/><rect fill="#FFFFFF" height="32" rx="12.5" ry="12.5" style="stroke:#1C2230;stroke-width:0.5;" width="155.0879" x="571.1594" y="171"/><text fill="#1C2230" font-family="Helvetica" font-size="12" lengthAdjust="spacing" textLength="135.0879" x="581.1594" y="190.2402">perfectAttendance := true</text><rect fill="#FFFFFF" height="44" rx="12.5" ry="12.5" style="stroke:#1C2230;stroke-width:0.5;" width="236.4453" x="530.4807" y="223"/><text fill="#1C2230" font-family="Helvetica" font-size="12" lengthAdjust="spacing" textLength="216.4453" x="540.4807" y="242.2402">originalShifts := shifts of the week whose</text><text fill="#1C2230" font-family="Helvetica" font-size="12" lengthAdjust="spacing" textLength="150.0293" x="540.4807" y="254.2402">original worker is W (BR-06)</text><rect fill="#FFFFFF" height="32" rx="12.5" ry="12.5" style="stroke:#1C2230;stroke-width:0.5;" width="107.041" x="595.1829" y="353.7402"/><text fill="#1C2230" font-family="Helvetica" font-size="12" lengthAdjust="spacing" textLength="87.041" x="605.1829" y="372.9805">shift := next shift</text><polygon fill="#FFFFFF" points="523.4827,405.7402,773.9241,405.7402,785.9241,417.7402,773.9241,429.7402,523.4827,429.7402,511.4827,417.7402,523.4827,405.7402" style="stroke:#1C2230;stroke-width:0.5;"/><text fill="#1C2230" font-family="Helvetica" font-size="12" lengthAdjust="spacing" textLength="110.0508" x="523.4827" y="414.9805">shift was given away</text><text fill="#1C2230" font-family="Helvetica" font-size="12" lengthAdjust="spacing" textLength="250.4414" x="523.4827" y="426.9805">(current workerId != W, approved substitution)?</text><text fill="#000000" font-family="Helvetica" font-size="12" lengthAdjust="spacing" textLength="18.6738" x="492.8088" y="414.9805">yes</text><text fill="#000000" font-family="Helvetica" font-size="12" lengthAdjust="spacing" textLength="114.9844" x="785.9241" y="414.9805">no - still W's own shift</text><polygon fill="#FFFFFF" points="305.6345,439.7402,553.0935,439.7402,565.0935,451.7402,553.0935,463.7402,305.6345,463.7402,293.6345,451.7402,305.6345,439.7402" style="stroke:#1C2230;stroke-width:0.5;"/><text fill="#1C2230" font-family="Helvetica" font-size="12" lengthAdjust="spacing" textLength="247.459" x="305.6345" y="454.9805">Workplace.subAttendancePolicy == ABSENT?</text><text fill="#000000" font-family="Helvetica" font-size="12" lengthAdjust="spacing" textLength="18.6738" x="274.9607" y="448.9805">yes</text><text fill="#000000" font-family="Helvetica" font-size="12" lengthAdjust="spacing" textLength="104.707" x="565.0935" y="448.9805">EXCUSED - default</text><rect fill="#FFFFFF" height="32" rx="12.5" ry="12.5" style="stroke:#1C2230;stroke-width:0.5;" width="159.7578" x="203.7556" y="473.7402"/><text fill="#1C2230" font-family="Helvetica" font-size="12" lengthAdjust="spacing" textLength="139.7578" x="213.7556" y="492.9805">perfectAttendance := false</text><rect fill="#FFFFFF" height="44" rx="12.5" ry="12.5" style="stroke:#1C2230;stroke-width:0.5;" width="139.4258" x="505.3806" y="473.7402"/><text fill="#1C2230" font-family="Helvetica" font-size="12" lengthAdjust="spacing" textLength="119.4258" x="515.3806" y="492.9805">attendance not broken</text><text fill="#1C2230" font-family="Helvetica" font-size="12" lengthAdjust="spacing" textLength="98.7305" x="515.3806" y="504.9805">(agreed handover)</text><polygon fill="#FFFFFF" points="429.364,523.7402,441.364,535.7402,429.364,547.7402,417.364,535.7402,429.364,523.7402" style="stroke:#1C2230;stroke-width:0.5;"/><polygon fill="#FFFFFF" points="801.6794,439.7402,934.406,439.7402,946.406,451.7402,934.406,463.7402,801.6794,463.7402,789.6794,451.7402,801.6794,439.7402" style="stroke:#1C2230;stroke-width:0.5;"/><text fill="#1C2230" font-family="Helvetica" font-size="12" lengthAdjust="spacing" textLength="132.7266" x="801.6794" y="454.9805">shift.status == ABSENT?</text><text fill="#000000" font-family="Helvetica" font-size="12" lengthAdjust="spacing" textLength="18.6738" x="771.0056" y="448.9805">yes</text><text fill="#000000" font-family="Helvetica" font-size="12" lengthAdjust="spacing" textLength="138.0176" x="946.406" y="448.9805">WORKED / SCHEDULED</text><rect fill="#FFFFFF" height="32" rx="12.5" ry="12.5" style="stroke:#1C2230;stroke-width:0.5;" width="159.7578" x="699.8005" y="473.7402"/><text fill="#1C2230" font-family="Helvetica" font-size="12" lengthAdjust="spacing" textLength="139.7578" x="709.8005" y="492.9805">perfectAttendance := false</text><rect fill="#FFFFFF" height="32" rx="12.5" ry="12.5" style="stroke:#1C2230;stroke-width:0.5;" width="139.4258" x="886.6931" y="473.7402"/><text fill="#1C2230" font-family="Helvetica" font-size="12" lengthAdjust="spacing" textLength="119.4258" x="896.6931" y="492.9805">attendance not broken</text><polygon fill="#FFFFFF" points="868.0427,511.7402,880.0427,523.7402,868.0427,535.7402,856.0427,523.7402,868.0427,511.7402" style="stroke:#1C2230;stroke-width:0.5;"/><polygon fill="#FFFFFF" points="648.7034,553.7402,660.7034,565.7402,648.7034,577.7402,636.7034,565.7402,648.7034,553.7402" style="stroke:#1C2230;stroke-width:0.5;"/><polygon fill="#FFFFFF" points="573.6711,299,723.7356,299,735.7356,311,723.7356,323,573.6711,323,561.6711,311,573.6711,299" style="stroke:#1C2230;stroke-width:0.5;"/><text fill="#000000" font-family="Helvetica" font-size="12" lengthAdjust="spacing" textLength="18.6738" x="652.7034" y="332.2402">yes</text><text fill="#1C2230" font-family="Helvetica" font-size="12" lengthAdjust="spacing" textLength="150.0645" x="573.6711" y="314.2402">more shifts in originalShifts?</text><text fill="#000000" font-family="Helvetica" font-size="12" lengthAdjust="spacing" textLength="75.3633" x="486.3079" y="308.2402">no more shifts</text><polygon fill="#FFFFFF" points="596.6663,619.7402,700.7405,619.7402,712.7405,631.7402,700.7405,643.7402,596.6663,643.7402,584.6663,631.7402,596.6663,619.7402" style="stroke:#1C2230;stroke-width:0.5;"/><text fill="#1C2230" font-family="Helvetica" font-size="12" lengthAdjust="spacing" textLength="104.0742" x="596.6663" y="634.9805">perfectAttendance?</text><text fill="#000000" font-family="Helvetica" font-size="12" lengthAdjust="spacing" textLength="13.3477" x="571.3186" y="628.9805">no</text><text fill="#000000" font-family="Helvetica" font-size="12" lengthAdjust="spacing" textLength="18.6738" x="712.7405" y="628.9805">yes</text><rect fill="#FFFFFF" height="32" rx="12.5" ry="12.5" style="stroke:#1C2230;stroke-width:0.5;" width="139.0742" x="450.6111" y="653.7402"/><text fill="#1C2230" font-family="Helvetica" font-size="12" lengthAdjust="spacing" textLength="119.0742" x="460.6111" y="672.9805">holidayEligible := false</text><rect fill="#FFFFFF" height="32" rx="12.5" ry="12.5" style="stroke:#1C2230;stroke-width:0.5;" width="113.7207" x="463.2878" y="705.7402"/><text fill="#1C2230" font-family="Helvetica" font-size="12" lengthAdjust="spacing" textLength="93.7207" x="473.2878" y="724.9805">holidayHours := 0</text><ellipse cx="520.1482" cy="768.7402" fill="none" rx="11" ry="11" style="stroke:#222222;stroke-width:1;"/><ellipse cx="520.1482" cy="768.7402" fill="#222222" rx="6" ry="6" style="stroke:#222222;stroke-width:1;"/><rect fill="#FFFFFF" height="32" rx="12.5" ry="12.5" style="stroke:#1C2230;stroke-width:0.5;" width="134.4043" x="710.0564" y="653.7402"/><text fill="#1C2230" font-family="Helvetica" font-size="12" lengthAdjust="spacing" textLength="114.4043" x="720.0564" y="672.9805">holidayEligible := true</text><rect fill="#FFFFFF" height="32" rx="12.5" ry="12.5" style="stroke:#1C2230;stroke-width:0.5;" width="335.1465" x="609.6853" y="705.7402"/><text fill="#1C2230" font-family="Helvetica" font-size="12" lengthAdjust="spacing" textLength="315.1465" x="619.6853" y="724.9805">cappedHours := min(contractHours, 40 h) (BR-07 40 h cap)</text><rect fill="#FFFFFF" height="32" rx="12.5" ry="12.5" style="stroke:#1C2230;stroke-width:0.5;" width="271.8125" x="641.3523" y="757.7402"/><text fill="#1C2230" font-family="Helvetica" font-size="12" lengthAdjust="spacing" textLength="251.8125" x="651.3523" y="776.9805">holidayHours := round(cappedHours / 40 * 8, 2)</text><rect fill="#FFFFFF" height="32" rx="12.5" ry="12.5" style="stroke:#1C2230;stroke-width:0.5;" width="216.418" x="669.0496" y="809.7402"/><text fill="#1C2230" font-family="Helvetica" font-size="12" lengthAdjust="spacing" textLength="196.418" x="679.0496" y="828.9805">effectiveWage := worker.hourlyWage</text><rect fill="#FFFFFF" height="32" rx="12.5" ry="12.5" style="stroke:#1C2230;stroke-width:0.5;" width="284.4629" x="635.0271" y="861.7402"/><text fill="#1C2230" font-family="Helvetica" font-size="12" lengthAdjust="spacing" textLength="264.4629" x="645.0271" y="880.9805">holidayPay := floor(holidayHours * effectiveWage)</text><ellipse cx="777.2585" cy="924.7402" fill="none" rx="11" ry="11" style="stroke:#222222;stroke-width:1;"/><ellipse cx="777.2585" cy="924.7402" fill="#222222" rx="6" ry="6" style="stroke:#222222;stroke-width:1;"/><line style="stroke:#1C2230;stroke-width:1;" x1="359.4609" x2="359.4609" y1="65" y2="85"/><polygon fill="#1C2230" points="355.4609,75,359.4609,85,363.4609,75,359.4609,79" style="stroke:#1C2230;stroke-width:1;"/><line style="stroke:#1C2230;stroke-width:1;" x1="80.5371" x2="80.5371" y1="203" y2="223"/><polygon fill="#1C2230" points="76.5371,213,80.5371,223,84.5371,213,80.5371,217" style="stroke:#1C2230;stroke-width:1;"/><line style="stroke:#1C2230;stroke-width:1;" x1="80.5371" x2="80.5371" y1="255" y2="287"/><polygon fill="#1C2230" points="76.5371,277,80.5371,287,84.5371,277,80.5371,281" style="stroke:#1C2230;stroke-width:1;"/><line style="stroke:#1C2230;stroke-width:1;" x1="648.7034" x2="648.7034" y1="203" y2="223"/><polygon fill="#1C2230" points="644.7034,213,648.7034,223,652.7034,213,648.7034,217" style="stroke:#1C2230;stroke-width:1;"/><line style="stroke:#1C2230;stroke-width:1;" x1="293.6345" x2="283.6345" y1="451.7402" y2="451.7402"/><line style="stroke:#1C2230;stroke-width:1;" x1="283.6345" x2="283.6345" y1="451.7402" y2="473.7402"/><polygon fill="#1C2230" points="279.6345,463.7402,283.6345,473.7402,287.6345,463.7402,283.6345,467.7402" style="stroke:#1C2230;stroke-width:1;"/><line style="stroke:#1C2230;stroke-width:1;" x1="565.0935" x2="575.0935" y1="451.7402" y2="451.7402"/><line style="stroke:#1C2230;stroke-width:1;" x1="575.0935" x2="575.0935" y1="451.7402" y2="473.7402"/><polygon fill="#1C2230" points="571.0935,463.7402,575.0935,473.7402,579.0935,463.7402,575.0935,467.7402" style="stroke:#1C2230;stroke-width:1;"/><line style="stroke:#1C2230;stroke-width:1;" x1="283.6345" x2="283.6345" y1="505.7402" y2="535.7402"/><line style="stroke:#1C2230;stroke-width:1;" x1="283.6345" x2="417.364" y1="535.7402" y2="535.7402"/><polygon fill="#1C2230" points="407.364,531.7402,417.364,535.7402,407.364,539.7402,411.364,535.7402" style="stroke:#1C2230;stroke-width:1;"/><line style="stroke:#1C2230;stroke-width:1;" x1="575.0935" x2="575.0935" y1="517.7402" y2="535.7402"/><line style="stroke:#1C2230;stroke-width:1;" x1="575.0935" x2="441.364" y1="535.7402" y2="535.7402"/><polygon fill="#1C2230" points="451.364,531.7402,441.364,535.7402,451.364,539.7402,447.364,535.7402" style="stroke:#1C2230;stroke-width:1;"/><line style="stroke:#1C2230;stroke-width:1;" x1="789.6794" x2="779.6794" y1="451.7402" y2="451.7402"/><line style="stroke:#1C2230;stroke-width:1;" x1="779.6794" x2="779.6794" y1="451.7402" y2="473.7402"/><polygon fill="#1C2230" points="775.6794,463.7402,779.6794,473.7402,783.6794,463.7402,779.6794,467.7402" style="stroke:#1C2230;stroke-width:1;"/><line style="stroke:#1C2230;stroke-width:1;" x1="946.406" x2="956.406" y1="451.7402" y2="451.7402"/><line style="stroke:#1C2230;stroke-width:1;" x1="956.406" x2="956.406" y1="451.7402" y2="473.7402"/><polygon fill="#1C2230" points="952.406,463.7402,956.406,473.7402,960.406,463.7402,956.406,467.7402" style="stroke:#1C2230;stroke-width:1;"/><line style="stroke:#1C2230;stroke-width:1;" x1="779.6794" x2="779.6794" y1="505.7402" y2="523.7402"/><line style="stroke:#1C2230;stroke-width:1;" x1="779.6794" x2="856.0427" y1="523.7402" y2="523.7402"/><polygon fill="#1C2230" points="846.0427,519.7402,856.0427,523.7402,846.0427,527.7402,850.0427,523.7402" style="stroke:#1C2230;stroke-width:1;"/><line style="stroke:#1C2230;stroke-width:1;" x1="956.406" x2="956.406" y1="505.7402" y2="523.7402"/><line style="stroke:#1C2230;stroke-width:1;" x1="956.406" x2="880.0427" y1="523.7402" y2="523.7402"/><polygon fill="#1C2230" points="890.0427,519.7402,880.0427,523.7402,890.0427,527.7402,886.0427,523.7402" style="stroke:#1C2230;stroke-width:1;"/><line style="stroke:#1C2230;stroke-width:1;" x1="511.4827" x2="429.364" y1="417.7402" y2="417.7402"/><line style="stroke:#1C2230;stroke-width:1;" x1="429.364" x2="429.364" y1="417.7402" y2="439.7402"/><polygon fill="#1C2230" points="425.364,429.7402,429.364,439.7402,433.364,429.7402,429.364,433.7402" style="stroke:#1C2230;stroke-width:1;"/><line style="stroke:#1C2230;stroke-width:1;" x1="785.9241" x2="868.0427" y1="417.7402" y2="417.7402"/><line style="stroke:#1C2230;stroke-width:1;" x1="868.0427" x2="868.0427" y1="417.7402" y2="439.7402"/><polygon fill="#1C2230" points="864.0427,429.7402,868.0427,439.7402,872.0427,429.7402,868.0427,433.7402" style="stroke:#1C2230;stroke-width:1;"/><line style="stroke:#1C2230;stroke-width:1;" x1="429.364" x2="429.364" y1="547.7402" y2="565.7402"/><line style="stroke:#1C2230;stroke-width:1;" x1="429.364" x2="636.7034" y1="565.7402" y2="565.7402"/><polygon fill="#1C2230" points="626.7034,561.7402,636.7034,565.7402,626.7034,569.7402,630.7034,565.7402" style="stroke:#1C2230;stroke-width:1;"/><line style="stroke:#1C2230;stroke-width:1;" x1="868.0427" x2="868.0427" y1="535.7402" y2="565.7402"/><line style="stroke:#1C2230;stroke-width:1;" x1="868.0427" x2="660.7034" y1="565.7402" y2="565.7402"/><polygon fill="#1C2230" points="670.7034,561.7402,660.7034,565.7402,670.7034,569.7402,666.7034,565.7402" style="stroke:#1C2230;stroke-width:1;"/><line style="stroke:#1C2230;stroke-width:1;" x1="648.7034" x2="648.7034" y1="385.7402" y2="405.7402"/><polygon fill="#1C2230" points="644.7034,395.7402,648.7034,405.7402,652.7034,395.7402,648.7034,399.7402" style="stroke:#1C2230;stroke-width:1;"/><line style="stroke:#1C2230;stroke-width:1;" x1="648.7034" x2="648.7034" y1="323" y2="353.7402"/><polygon fill="#1C2230" points="644.7034,343.7402,648.7034,353.7402,652.7034,343.7402,648.7034,347.7402" style="stroke:#1C2230;stroke-width:1;"/><line style="stroke:#1C2230;stroke-width:1;" x1="648.7034" x2="648.7034" y1="577.7402" y2="587.7402"/><line style="stroke:#1C2230;stroke-width:1;" x1="648.7034" x2="1098.4236" y1="587.7402" y2="587.7402"/><polygon fill="#1C2230" points="1094.4236,450.2402,1098.4236,440.2402,1102.4236,450.2402,1098.4236,446.2402" style="stroke:#1C2230;stroke-width:1;"/><line style="stroke:#1C2230;stroke-width:1;" x1="1098.4236" x2="1098.4236" y1="311" y2="587.7402"/><line style="stroke:#1C2230;stroke-width:1;" x1="1098.4236" x2="735.7356" y1="311" y2="311"/><polygon fill="#1C2230" points="745.7356,307,735.7356,311,745.7356,315,741.7356,311" style="stroke:#1C2230;stroke-width:1;"/><line style="stroke:#1C2230;stroke-width:1;" x1="561.6711" x2="171.7556" y1="311" y2="311"/><polygon fill="#1C2230" points="167.7556,436.2402,171.7556,446.2402,175.7556,436.2402,171.7556,440.2402" style="stroke:#1C2230;stroke-width:1;"/><line style="stroke:#1C2230;stroke-width:1;" x1="171.7556" x2="171.7556" y1="311" y2="599.7402"/><line style="stroke:#1C2230;stroke-width:1;" x1="171.7556" x2="648.7034" y1="599.7402" y2="599.7402"/><line style="stroke:#1C2230;stroke-width:1;" x1="648.7034" x2="648.7034" y1="599.7402" y2="619.7402"/><polygon fill="#1C2230" points="644.7034,609.7402,648.7034,619.7402,652.7034,609.7402,648.7034,613.7402" style="stroke:#1C2230;stroke-width:1;"/><line style="stroke:#1C2230;stroke-width:1;" x1="648.7034" x2="648.7034" y1="267" y2="299"/><polygon fill="#1C2230" points="644.7034,289,648.7034,299,652.7034,289,648.7034,293" style="stroke:#1C2230;stroke-width:1;"/><line style="stroke:#1C2230;stroke-width:1;" x1="520.1482" x2="520.1482" y1="685.7402" y2="705.7402"/><polygon fill="#1C2230" points="516.1482,695.7402,520.1482,705.7402,524.1482,695.7402,520.1482,699.7402" style="stroke:#1C2230;stroke-width:1;"/><line style="stroke:#1C2230;stroke-width:1;" x1="520.1482" x2="520.1482" y1="737.7402" y2="757.7402"/><polygon fill="#1C2230" points="516.1482,747.7402,520.1482,757.7402,524.1482,747.7402,520.1482,751.7402" style="stroke:#1C2230;stroke-width:1;"/><line style="stroke:#1C2230;stroke-width:1;" x1="777.2585" x2="777.2585" y1="685.7402" y2="705.7402"/><polygon fill="#1C2230" points="773.2585,695.7402,777.2585,705.7402,781.2585,695.7402,777.2585,699.7402" style="stroke:#1C2230;stroke-width:1;"/><line style="stroke:#1C2230;stroke-width:1;" x1="777.2585" x2="777.2585" y1="737.7402" y2="757.7402"/><polygon fill="#1C2230" points="773.2585,747.7402,777.2585,757.7402,781.2585,747.7402,777.2585,751.7402" style="stroke:#1C2230;stroke-width:1;"/><line style="stroke:#1C2230;stroke-width:1;" x1="777.2585" x2="777.2585" y1="789.7402" y2="809.7402"/><polygon fill="#1C2230" points="773.2585,799.7402,777.2585,809.7402,781.2585,799.7402,777.2585,803.7402" style="stroke:#1C2230;stroke-width:1;"/><line style="stroke:#1C2230;stroke-width:1;" x1="777.2585" x2="777.2585" y1="841.7402" y2="861.7402"/><polygon fill="#1C2230" points="773.2585,851.7402,777.2585,861.7402,781.2585,851.7402,777.2585,855.7402" style="stroke:#1C2230;stroke-width:1;"/><line style="stroke:#1C2230;stroke-width:1;" x1="777.2585" x2="777.2585" y1="893.7402" y2="913.7402"/><polygon fill="#1C2230" points="773.2585,903.7402,777.2585,913.7402,781.2585,903.7402,777.2585,907.7402" style="stroke:#1C2230;stroke-width:1;"/><line style="stroke:#1C2230;stroke-width:1;" x1="584.6663" x2="520.1482" y1="631.7402" y2="631.7402"/><line style="stroke:#1C2230;stroke-width:1;" x1="520.1482" x2="520.1482" y1="631.7402" y2="653.7402"/><polygon fill="#1C2230" points="516.1482,643.7402,520.1482,653.7402,524.1482,643.7402,520.1482,647.7402" style="stroke:#1C2230;stroke-width:1;"/><line style="stroke:#1C2230;stroke-width:1;" x1="712.7405" x2="777.2585" y1="631.7402" y2="631.7402"/><line style="stroke:#1C2230;stroke-width:1;" x1="777.2585" x2="777.2585" y1="631.7402" y2="653.7402"/><polygon fill="#1C2230" points="773.2585,643.7402,777.2585,653.7402,781.2585,643.7402,777.2585,647.7402" style="stroke:#1C2230;stroke-width:1;"/><line style="stroke:#1C2230;stroke-width:1;" x1="284.7568" x2="80.5371" y1="149" y2="149"/><line style="stroke:#1C2230;stroke-width:1;" x1="80.5371" x2="80.5371" y1="149" y2="171"/><polygon fill="#1C2230" points="76.5371,161,80.5371,171,84.5371,161,80.5371,165" style="stroke:#1C2230;stroke-width:1;"/><line style="stroke:#1C2230;stroke-width:1;" x1="434.165" x2="648.7034" y1="149" y2="149"/><line style="stroke:#1C2230;stroke-width:1;" x1="648.7034" x2="648.7034" y1="149" y2="171"/><polygon fill="#1C2230" points="644.7034,161,648.7034,171,652.7034,161,648.7034,165" style="stroke:#1C2230;stroke-width:1;"/><line style="stroke:#1C2230;stroke-width:1;" x1="359.4609" x2="359.4609" y1="117" y2="137"/><polygon fill="#1C2230" points="355.4609,127,359.4609,137,363.4609,127,359.4609,131" style="stroke:#1C2230;stroke-width:1;"/><!--SRC=[hLHDRzf04BtxLqpIG-qe940_KYMY5G4YgbPf51hHGowBFSOhrhjeTutZLFtldRKnc1IKItt0PdRcpRmtCtkqr6oUCX2iK9a5aw9badbcmUMIQPP2X37BXBrHqjwo5E5uZ6A5beViUB_NX3yZTBgDGvEmIELSpY5cmc3ZPCR2nLohJ4O39PI6DpVbq_1WeUKhRWluxG5S7t2d4wKZr6jhPz3jlckJrPNpqjRNMkKlZKFEKYMZm_YrmvuqVppFSYiG-iDM1yPAy8WLBIQ4ofaCaQIng5CkcULAGaoHkT8Br30zXHnn0VxrVQlz4Sx1lIy2ppEMQUjTXbIz9lvZbMa3bpqmMGegXkbR0p5_mgXbmWIZZ58dfOl3jWasKOChp-Cn-BjOdtlG-G39by2vI_2b2eZZPLBLFX9ypcU4IYdBXbqr3ZV5j9tLMBNqa5p0Bz2K84lKCOQsRotAg1I0dAtEAXIb2LioCKbuR2jIrHVnsfIU9yhWewnzQxsuWMc35f0VfohzL6ciORY4tHJ4aUBgwgY2qj4bblXagx2hyiJ9L1tcpC2ShqWPbhFYKVfXfZLAkoxaQmH7FTSzjbngjSA86ZCpD0EPwt2mKNMJiyAUKl1Ii13Fo7qhpntf6XRGwq7_UZAw_Ral_92ic-wufsh3wDVWOJ8QGgjUoGO6smPBPM6crG8bqMDpZSGYOJ8YEZhO8Cg8nzuMMog29Q92b3EeSbdfrsHP6iveWcrc_XkfwO_xRyJf72Q3yMZuy7qqV8tL7WhhBtglvuReD4OdS1Fb6FnJr8irUMLH3gtAUbbgIjk1t0DMhmkTXZHa66sWw1xPtULJUD-69AZsugBy0nGJ72YblDpy9kYvYpc1JwVGhOCmTWBG0apPlAodclipTyk8mXbtqUzOKKeWbDB-JiOJsC4ATeKeErB-_WK0]--></g></svg>