<svg xmlns="http://www.w3.org/2000/svg" xmlns:xlink="http://www.w3.org/1999/xlink" contentStyleType="text/css" data-diagram-type="ACTIVITY" height="864px" preserveAspectRatio="none" style="width:908px;height:864px;background:#FFFFFF;" version="1.1" viewBox="0 0 908 864" width="908px" zoomAndPan="magnify"><title>AD-2 Find eligible candidates for shift S (date d, start s, end e) &#8212; BR-01</title><defs/><g><text fill="#000000" font-family="Helvetica" font-size="14" font-weight="bold" lengthAdjust="spacing" textLength="475.2959" x="215.0042" y="30.7803">AD-2 Find eligible candidates for shift S (date d, start s, end e) &#8212; BR-01</text><text fill="#000000" font-family="Helvetica" font-size="14" font-weight="bold" lengthAdjust="spacing" textLength="261.3584" x="321.9729" y="44.7803">(included by UC-04 Request substitute)</text><ellipse cx="255.8765" cy="69" fill="#222222" rx="10" ry="10" style="stroke:#222222;stroke-width:1;"/><rect fill="#FFFFFF" height="32" rx="12.5" ry="12.5" style="stroke:#1C2230;stroke-width:0.5;" width="125.0469" x="193.353" y="99"/><text fill="#1C2230" font-family="Helvetica" font-size="12" lengthAdjust="spacing" textLength="105.0469" x="203.353" y="118.2402">eligible := empty list</text><rect fill="#FFFFFF" height="32" rx="12.5" ry="12.5" style="stroke:#1C2230;stroke-width:0.5;" width="239.7734" x="135.9897" y="151"/><text fill="#1C2230" font-family="Helvetica" font-size="12" lengthAdjust="spacing" textLength="219.7734" x="145.9897" y="170.2402">candidates := all Worker of the workplace</text><rect fill="#FFFFFF" height="32" rx="12.5" ry="12.5" style="stroke:#1C2230;stroke-width:0.5;" width="126.3945" x="192.6792" y="257.7402"/><text fill="#1C2230" font-family="Helvetica" font-size="12" lengthAdjust="spacing" textLength="106.3945" x="202.6792" y="276.9805">W := next candidate</text><polygon fill="#FFFFFF" points="208.855,309.7402,302.8979,309.7402,314.8979,321.7402,302.8979,333.7402,208.855,333.7402,196.855,321.7402,208.855,309.7402" style="stroke:#1C2230;stroke-width:0.5;"/><text fill="#1C2230" font-family="Helvetica" font-size="12" lengthAdjust="spacing" textLength="94.043" x="208.855" y="324.9805">W.active == true?</text><text fill="#000000" font-family="Helvetica" font-size="12" lengthAdjust="spacing" textLength="13.3477" x="183.5073" y="318.9805">no</text><text fill="#000000" font-family="Helvetica" font-size="12" lengthAdjust="spacing" textLength="18.6738" x="314.8979" y="318.9805">yes</text><rect fill="#FFFFFF" height="32" rx="12.5" ry="12.5" style="stroke:#1C2230;stroke-width:0.5;" width="64.0039" x="101.771" y="343.7402"/><text fill="#1C2230" font-family="Helvetica" font-size="12" lengthAdjust="spacing" textLength="44.0039" x="111.771" y="362.9805">reject W</text><polygon fill="#FFFFFF" points="333.2905,343.7402,422.6694,343.7402,434.6694,355.7402,422.6694,367.7402,333.2905,367.7402,321.2905,355.7402,333.2905,343.7402" style="stroke:#1C2230;stroke-width:0.5;"/><text fill="#1C2230" font-family="Helvetica" font-size="12" lengthAdjust="spacing" textLength="89.3789" x="333.2905" y="358.9805">W == requester?</text><text fill="#000000" font-family="Helvetica" font-size="12" lengthAdjust="spacing" textLength="18.6738" x="302.6167" y="352.9805">yes</text><text fill="#000000" font-family="Helvetica" font-size="12" lengthAdjust="spacing" textLength="13.3477" x="434.6694" y="352.9805">no</text><rect fill="#FFFFFF" height="32" rx="12.5" ry="12.5" style="stroke:#1C2230;stroke-width:0.5;" width="64.0039" x="195.7749" y="377.7402"/><text fill="#1C2230" font-family="Helvetica" font-size="12" lengthAdjust="spacing" textLength="44.0039" x="205.7749" y="396.9805">reject W</text><polygon fill="#FFFFFF" points="466.8149,377.7402,589.5513,377.7402,601.5513,389.7402,589.5513,401.7402,466.8149,401.7402,454.8149,389.7402,466.8149,377.7402" style="stroke:#1C2230;stroke-width:0.5;"/><text fill="#1C2230" font-family="Helvetica" font-size="12" lengthAdjust="spacing" textLength="122.7363" x="466.8149" y="386.9805">W has a shift on date d</text><text fill="#1C2230" font-family="Helvetica" font-size="12" lengthAdjust="spacing" textLength="98.7246" x="466.8149" y="398.9805">overlapping [s, e)?</text><text fill="#000000" font-family="Helvetica" font-size="12" lengthAdjust="spacing" textLength="18.6738" x="436.1411" y="386.9805">yes</text><text fill="#000000" font-family="Helvetica" font-size="12" lengthAdjust="spacing" textLength="13.3477" x="601.5513" y="386.9805">no</text><rect fill="#FFFFFF" height="32" rx="12.5" ry="12.5" style="stroke:#1C2230;stroke-width:0.5;" width="164.0469" x="289.7788" y="411.7402"/><text fill="#1C2230" font-family="Helvetica" font-size="12" lengthAdjust="spacing" textLength="144.0469" x="299.7788" y="430.9805">reject W (schedule conflict)</text><polygon fill="#FFFFFF" points="577.1821,411.7402,791.9458,411.7402,803.9458,423.7402,791.9458,435.7402,577.1821,435.7402,565.1821,423.7402,577.1821,411.7402" style="stroke:#1C2230;stroke-width:0.5;"/><text fill="#1C2230" font-family="Helvetica" font-size="12" lengthAdjust="spacing" textLength="214.7637" x="577.1821" y="420.9805">W has an Availability slot on weekday(d)</text><text fill="#1C2230" font-family="Helvetica" font-size="12" lengthAdjust="spacing" textLength="196.1191" x="577.1821" y="432.9805">with slotStart &lt;= s and slotEnd &gt;= e?</text><text fill="#000000" font-family="Helvetica" font-size="12" lengthAdjust="spacing" textLength="13.3477" x="551.8345" y="420.9805">no</text><text fill="#000000" font-family="Helvetica" font-size="12" lengthAdjust="spacing" textLength="18.6738" x="803.9458" y="420.9805">yes</text><rect fill="#FFFFFF" height="32" rx="12.5" ry="12.5" style="stroke:#1C2230;stroke-width:0.5;" width="142.7129" x="483.8257" y="445.7402"/><text fill="#1C2230" font-family="Helvetica" font-size="12" lengthAdjust="spacing" textLength="122.7129" x="493.8257" y="464.9805">reject W (not available)</text><rect fill="#FFFFFF" height="32" rx="12.5" ry="12.5" style="stroke:#1C2230;stroke-width:0.5;" width="108.7168" x="759.5874" y="445.7402"/><text fill="#1C2230" font-family="Helvetica" font-size="12" lengthAdjust="spacing" textLength="88.7168" x="769.5874" y="464.9805">add W to eligible</text><polygon fill="#FFFFFF" points="684.564,483.7402,696.564,495.7402,684.564,507.7402,672.564,495.7402,684.564,483.7402" style="stroke:#1C2230;stroke-width:0.5;"/><polygon fill="#FFFFFF" points="528.1831,513.7402,540.1831,525.7402,528.1831,537.7402,516.1831,525.7402,528.1831,513.7402" style="stroke:#1C2230;stroke-width:0.5;"/><polygon fill="#FFFFFF" points="377.98,543.7402,389.98,555.7402,377.98,567.7402,365.98,555.7402,377.98,543.7402" style="stroke:#1C2230;stroke-width:0.5;"/><polygon fill="#FFFFFF" points="255.8765,573.7402,267.8765,585.7402,255.8765,597.7402,243.8765,585.7402,255.8765,573.7402" style="stroke:#1C2230;stroke-width:0.5;"/><polygon fill="#FFFFFF" points="208.1812,203,303.5718,203,315.5718,215,303.5718,227,208.1812,227,196.1812,215,208.1812,203" style="stroke:#1C2230;stroke-width:0.5;"/><text fill="#000000" font-family="Helvetica" font-size="12" lengthAdjust="spacing" textLength="18.6738" x="259.8765" y="236.2402">yes</text><text fill="#1C2230" font-family="Helvetica" font-size="12" lengthAdjust="spacing" textLength="95.3906" x="208.1812" y="218.2402">more candidates?</text><text fill="#000000" font-family="Helvetica" font-size="12" lengthAdjust="spacing" textLength="105.3984" x="90.7827" y="212.2402">no more candidates</text><polygon fill="#FFFFFF" points="209.854,639.7402,301.8989,639.7402,313.8989,651.7402,301.8989,663.7402,209.854,663.7402,197.854,651.7402,209.854,639.7402" style="stroke:#1C2230;stroke-width:0.5;"/><text fill="#1C2230" font-family="Helvetica" font-size="12" lengthAdjust="spacing" textLength="92.0449" x="209.854" y="654.9805">eligible is empty?</text><text fill="#000000" font-family="Helvetica" font-size="12" lengthAdjust="spacing" textLength="18.6738" x="179.1802" y="648.9805">yes</text><text fill="#000000" font-family="Helvetica" font-size="12" lengthAdjust="spacing" textLength="13.3477" x="313.8989" y="648.9805">no</text><rect fill="#FFFFFF" height="32" rx="12.5" ry="12.5" style="stroke:#1C2230;stroke-width:0.5;" width="232.707" x="11" y="673.7402"/><text fill="#1C2230" font-family="Helvetica" font-size="12" lengthAdjust="spacing" textLength="212.707" x="21" y="692.9805">notify Owner: NO_CANDIDATE (FR-08)</text><rect fill="#FFFFFF" height="44" rx="12.5" ry="12.5" style="stroke:#1C2230;stroke-width:0.5;" width="201.4473" x="283.6758" y="673.7402"/><text fill="#1C2230" font-family="Helvetica" font-size="12" lengthAdjust="spacing" textLength="181.4473" x="293.6758" y="692.9805">create one SubRequestTarget per</text><text fill="#1C2230" font-family="Helvetica" font-size="12" lengthAdjust="spacing" textLength="137.4023" x="293.6758" y="704.9805">eligible candidate (FR-07)</text><rect fill="#FFFFFF" height="44" rx="12.5" ry="12.5" style="stroke:#1C2230;stroke-width:0.5;" width="241.3848" x="263.707" y="737.7402"/><text fill="#1C2230" font-family="Helvetica" font-size="12" lengthAdjust="spacing" textLength="154.1074" x="273.707" y="756.9805">notify each eligible candidate</text><text fill="#1C2230" font-family="Helvetica" font-size="12" lengthAdjust="spacing" textLength="221.3848" x="273.707" y="768.9805">(REQUEST_RECEIVED) at once (FR-07)</text><polygon fill="#FFFFFF" points="255.8765,787.7402,267.8765,799.7402,255.8765,811.7402,243.8765,799.7402,255.8765,787.7402" style="stroke:#1C2230;stroke-width:0.5;"/><ellipse cx="255.8765" cy="842.7402" fill="none" rx="11" ry="11" style="stroke:#222222;stroke-width:1;"/><ellipse cx="255.8765" cy="842.7402" fill="#222222" rx="6" ry="6" style="stroke:#222222;stroke-width:1;"/><line style="stroke:#1C2230;stroke-width:1;" x1="255.8765" x2="255.8765" y1="79" y2="99"/><polygon fill="#1C2230" points="251.8765,89,255.8765,99,259.8765,89,255.8765,93" style="stroke:#1C2230;stroke-width:1;"/><line style="stroke:#1C2230;stroke-width:1;" x1="255.8765" x2="255.8765" y1="131" y2="151"/><polygon fill="#1C2230" points="251.8765,141,255.8765,151,259.8765,141,255.8765,145" style="stroke:#1C2230;stroke-width:1;"/><line style="stroke:#1C2230;stroke-width:1;" x1="565.1821" x2="555.1821" y1="423.7402" y2="423.7402"/><line style="stroke:#1C2230;stroke-width:1;" x1="555.1821" x2="555.1821" y1="423.7402" y2="445.7402"/><polygon fill="#1C2230" points="551.1821,435.7402,555.1821,445.7402,559.1821,435.7402,555.1821,439.7402" style="stroke:#1C2230;stroke-width:1;"/><line style="stroke:#1C2230;stroke-width:1;" x1="803.9458" x2="813.9458" y1="423.7402" y2="423.7402"/><line style="stroke:#1C2230;stroke-width:1;" x1="813.9458" x2="813.9458" y1="423.7402" y2="445.7402"/><polygon fill="#1C2230" points="809.9458,435.7402,813.9458,445.7402,817.9458,435.7402,813.9458,439.7402" style="stroke:#1C2230;stroke-width:1;"/><line style="stroke:#1C2230;stroke-width:1;" x1="555.1821" x2="555.1821" y1="477.7402" y2="495.7402"/><line style="stroke:#1C2230;stroke-width:1;" x1="555.1821" x2="672.564" y1="495.7402" y2="495.7402"/><polygon fill="#1C2230" points="662.564,491.7402,672.564,495.7402,662.564,499.7402,666.564,495.7402" style="stroke:#1C2230;stroke-width:1;"/><line style="stroke:#1C2230;stroke-width:1;" x1="813.9458" x2="813.9458" y1="477.7402" y2="495.7402"/><line style="stroke:#1C2230;stroke-width:1;" x1="813.9458" x2="696.564" y1="495.7402" y2="495.7402"/><polygon fill="#1C2230" points="706.564,491.7402,696.564,495.7402,706.564,499.7402,702.564,495.7402" style="stroke:#1C2230;stroke-width:1;"/><line style="stroke:#1C2230;stroke-width:1;" x1="454.8149" x2="371.8022" y1="389.7402" y2="389.7402"/><line style="stroke:#1C2230;stroke-width:1;" x1="371.8022" x2="371.8022" y1="389.7402" y2="411.7402"/><polygon fill="#1C2230" points="367.8022,401.7402,371.8022,411.7402,375.8022,401.7402,371.8022,405.7402" style="stroke:#1C2230;stroke-width:1;"/><line style="stroke:#1C2230;stroke-width:1;" x1="601.5513" x2="684.564" y1="389.7402" y2="389.7402"/><line style="stroke:#1C2230;stroke-width:1;" x1="684.564" x2="684.564" y1="389.7402" y2="411.7402"/><polygon fill="#1C2230" points="680.564,401.7402,684.564,411.7402,688.564,401.7402,684.564,405.7402" style="stroke:#1C2230;stroke-width:1;"/><line style="stroke:#1C2230;stroke-width:1;" x1="371.8022" x2="371.8022" y1="443.7402" y2="525.7402"/><line style="stroke:#1C2230;stroke-width:1;" x1="371.8022" x2="516.1831" y1="525.7402" y2="525.7402"/><polygon fill="#1C2230" points="506.1831,521.7402,516.1831,525.7402,506.1831,529.7402,510.1831,525.7402" style="stroke:#1C2230;stroke-width:1;"/><line style="stroke:#1C2230;stroke-width:1;" x1="684.564" x2="684.564" y1="507.7402" y2="525.7402"/><line style="stroke:#1C2230;stroke-width:1;" x1="684.564" x2="540.1831" y1="525.7402" y2="525.7402"/><polygon fill="#1C2230" points="550.1831,521.7402,540.1831,525.7402,550.1831,529.7402,546.1831,525.7402" style="stroke:#1C2230;stroke-width:1;"/><line style="stroke:#1C2230;stroke-width:1;" x1="321.2905" x2="227.7769" y1="355.7402" y2="355.7402"/><line style="stroke:#1C2230;stroke-width:1;" x1="227.7769" x2="227.7769" y1="355.7402" y2="377.7402"/><polygon fill="#1C2230" points="223.7769,367.7402,227.7769,377.7402,231.7769,367.7402,227.7769,371.7402" style="stroke:#1C2230;stroke-width:1;"/><line style="stroke:#1C2230;stroke-width:1;" x1="434.6694" x2="528.1831" y1="355.7402" y2="355.7402"/><line style="stroke:#1C2230;stroke-width:1;" x1="528.1831" x2="528.1831" y1="355.7402" y2="377.7402"/><polygon fill="#1C2230" points="524.1831,367.7402,528.1831,377.7402,532.1831,367.7402,528.1831,371.7402" style="stroke:#1C2230;stroke-width:1;"/><line style="stroke:#1C2230;stroke-width:1;" x1="227.7769" x2="227.7769" y1="409.7402" y2="555.7402"/><line style="stroke:#1C2230;stroke-width:1;" x1="227.7769" x2="365.98" y1="555.7402" y2="555.7402"/><polygon fill="#1C2230" points="355.98,551.7402,365.98,555.7402,355.98,559.7402,359.98,555.7402" style="stroke:#1C2230;stroke-width:1;"/><line style="stroke:#1C2230;stroke-width:1;" x1="528.1831" x2="528.1831" y1="537.7402" y2="555.7402"/><line style="stroke:#1C2230;stroke-width:1;" x1="528.1831" x2="389.98" y1="555.7402" y2="555.7402"/><polygon fill="#1C2230" points="399.98,551.7402,389.98,555.7402,399.98,559.7402,395.98,555.7402" style="stroke:#1C2230;stroke-width:1;"/><line style="stroke:#1C2230;stroke-width:1;" x1="196.855" x2="133.7729" y1="321.7402" y2="321.7402"/><line style="stroke:#1C2230;stroke-width:1;" x1="133.7729" x2="133.7729" y1="321.7402" y2="343.7402"/><polygon fill="#1C2230" points="129.7729,333.7402,133.7729,343.7402,137.7729,333.7402,133.7729,337.7402" style="stroke:#1C2230;stroke-width:1;"/><line style="stroke:#1C2230;stroke-width:1;" x1="314.8979" x2="377.98" y1="321.7402" y2="321.7402"/><line style="stroke:#1C2230;stroke-width:1;" x1="377.98" x2="377.98" y1="321.7402" y2="343.7402"/><polygon fill="#1C2230" points="373.98,333.7402,377.98,343.7402,381.98,333.7402,377.98,337.7402" style="stroke:#1C2230;stroke-width:1;"/><line style="stroke:#1C2230;stroke-width:1;" x1="133.7729" x2="133.7729" y1="375.7402" y2="585.7402"/><line style="stroke:#1C2230;stroke-width:1;" x1="133.7729" x2="243.8765" y1="585.7402" y2="585.7402"/><polygon fill="#1C2230" points="233.8765,581.7402,243.8765,585.7402,233.8765,589.7402,237.8765,585.7402" style="stroke:#1C2230;stroke-width:1;"/><line style="stroke:#1C2230;stroke-width:1;" x1="377.98" x2="377.98" y1="567.7402" y2="585.7402"/><line style="stroke:#1C2230;stroke-width:1;" x1="377.98" x2="267.8765" y1="585.7402" y2="585.7402"/><polygon fill="#1C2230" points="277.8765,581.7402,267.8765,585.7402,277.8765,589.7402,273.8765,585.7402" style="stroke:#1C2230;stroke-width:1;"/><line style="stroke:#1C2230;stroke-width:1;" x1="255.8765" x2="255.8765" y1="289.7402" y2="309.7402"/><polygon fill="#1C2230" points="251.8765,299.7402,255.8765,309.7402,259.8765,299.7402,255.8765,303.7402" style="stroke:#1C2230;stroke-width:1;"/><line style="stroke:#1C2230;stroke-width:1;" x1="255.8765" x2="255.8765" y1="227" y2="257.7402"/><polygon fill="#1C2230" points="251.8765,247.7402,255.8765,257.7402,259.8765,247.7402,255.8765,251.7402" style="stroke:#1C2230;stroke-width:1;"/><line style="stroke:#1C2230;stroke-width:1;" x1="255.8765" x2="255.8765" y1="597.7402" y2="607.7402"/><line style="stroke:#1C2230;stroke-width:1;" x1="255.8765" x2="882.3042" y1="607.7402" y2="607.7402"/><polygon fill="#1C2230" points="878.3042,412.2402,882.3042,402.2402,886.3042,412.2402,882.3042,408.2402" style="stroke:#1C2230;stroke-width:1;"/><line style="stroke:#1C2230;stroke-width:1;" x1="882.3042" x2="882.3042" y1="215" y2="607.7402"/><line style="stroke:#1C2230;stroke-width:1;" x1="882.3042" x2="315.5718" y1="215" y2="215"/><polygon fill="#1C2230" points="325.5718,211,315.5718,215,325.5718,219,321.5718,215" style="stroke:#1C2230;stroke-width:1;"/><line style="stroke:#1C2230;stroke-width:1;" x1="196.1812" x2="79.771" y1="215" y2="215"/><polygon fill="#1C2230" points="75.771,398.2402,79.771,408.2402,83.771,398.2402,79.771,402.2402" style="stroke:#1C2230;stroke-width:1;"/><line style="stroke:#1C2230;stroke-width:1;" x1="79.771" x2="79.771" y1="215" y2="619.7402"/><line style="stroke:#1C2230;stroke-width:1;" x1="79.771" x2="255.8765" y1="619.7402" y2="619.7402"/><line style="stroke:#1C2230;stroke-width:1;" x1="255.8765" x2="255.8765" y1="619.7402" y2="639.7402"/><polygon fill="#1C2230" points="251.8765,629.7402,255.8765,639.7402,259.8765,629.7402,255.8765,633.7402" style="stroke:#1C2230;stroke-width:1;"/><line style="stroke:#1C2230;stroke-width:1;" x1="255.8765" x2="255.8765" y1="183" y2="203"/><polygon fill="#1C2230" points="251.8765,193,255.8765,203,259.8765,193,255.8765,197" style="stroke:#1C2230;stroke-width:1;"/><line style="stroke:#1C2230;stroke-width:1;" x1="384.3994" x2="384.3994" y1="717.7402" y2="737.7402"/><polygon fill="#1C2230" points="380.3994,727.7402,384.3994,737.7402,388.3994,727.7402,384.3994,731.7402" style="stroke:#1C2230;stroke-width:1;"/><line style="stroke:#1C2230;stroke-width:1;" x1="197.854" x2="127.3535" y1="651.7402" y2="651.7402"/><line style="stroke:#1C2230;stroke-width:1;" x1="127.3535" x2="127.3535" y1="651.7402" y2="673.7402"/><polygon fill="#1C2230" points="123.3535,663.7402,127.3535,673.7402,131.3535,663.7402,127.3535,667.7402" style="stroke:#1C2230;stroke-width:1;"/><line style="stroke:#1C2230;stroke-width:1;" x1="313.8989" x2="384.3994" y1="651.7402" y2="651.7402"/><line style="stroke:#1C2230;stroke-width:1;" x1="384.3994" x2="384.3994" y1="651.7402" y2="673.7402"/><polygon fill="#1C2230" points="380.3994,663.7402,384.3994,673.7402,388.3994,663.7402,384.3994,667.7402" style="stroke:#1C2230;stroke-width:1;"/><line style="stroke:#1C2230;stroke-width:1;" x1="127.3535" x2="127.3535" y1="705.7402" y2="799.7402"/><line style="stroke:#1C2230;stroke-width:1;" x1="127.3535" x2="243.8765" y1="799.7402" y2="799.7402"/><polygon fill="#1C2230" points="233.8765,795.7402,243.8765,799.7402,233.8765,803.7402,237.8765,799.7402" style="stroke:#1C2230;stroke-width:1;"/><line style="stroke:#1C2230;stroke-width:1;" x1="384.3994" x2="384.3994" y1="781.7402" y2="799.7402"/><line style="stroke:#1C2230;stroke-width:1;" x1="384.3994" x2="267.8765" y1="799.7402" y2="799.7402"/><polygon fill="#1C2230" points="277.8765,795.7402,267.8765,799.7402,277.8765,803.7402,273.8765,799.7402" style="stroke:#1C2230;stroke-width:1;"/><line style="stroke:#1C2230;stroke-width:1;" x1="255.8765" x2="255.8765" y1="811.7402" y2="831.7402"/><polygon fill="#1C2230" points="251.8765,821.7402,255.8765,831.7402,259.8765,821.7402,255.8765,825.7402" style="stroke:#1C2230;stroke-width:1;"/><!--SRC=[TLFRRjD047ttLmpbnPPQr0OaK490QUA8lhGYQSa3aQg9TnmlMU-QtNL2G4Xy15_8bp1sBfWapKDipymvCtlcxBF2uZn7KBWsfGUNaqUDWLj8NQ3570IbM2e_DDhVOavmze7KahnCyEnqrLX-9xXgDP8kGs5MKiyXHUMeaPbXifXRKshHDyfOU3wiVuqAJBnSIh-67m70zHFbd35MaDr6h_gjrijBZbRZ7CPwrfhLON0WCJTQFCs_ApZHvcSGUEaLGMzmqOAXr098oRcSSIX1BQH0JmvIXhXCfXx645OX4EVWF5eM_HoeGaNmvzTlk1vTN5vDTIXreaf10cPhUEXVNBw24NqjoN5zENFSilGK1K5D4RJtBTjTeBnWmPHqlXEq6oDm2fM2YR4Bic1Iy1d1YhyAXGbrWc2LIMO8SsERex-FG3e8r-GYLg8zgNWqVVF_IXWA85C89o_gVH5qk-1jIGpb7Xf2RIeieorzeSJ3fCEVn6ROysu9AgJTd9Fi7hwlEM3OSUpeToGPEi2jt4R3HkwfDako2ekYikBdIlNeL8T63mXTaf4egrKQdIgP-AYpBJli_5zl3RqbIeKpgIhpEcNgGLP42u7hK4HJlP8-gnFZsWHlkr3XH1sA-VcE5tcatz5ycebnqqhHVhOZRRSu5891tkmTsW3mBjFWy7ttjddo_zOYsi21IzYArVdtFcJBr3uyLBZD4yjq3NShJRODjtUF_Txju6RGkuyX7BBtt_0fcjgs4qlL_emc69UpxIMuHpid3mNPgJw-RXkcrxKUkuQ4INRYPl9D6yKV7-Bn_UCexiStd-9115XjAsdGRCxll2d-0W00]--></g></svg>