<svg xmlns="http://www.w3.org/2000/svg" xmlns:xlink="http://www.w3.org/1999/xlink" version="1.1" data-diagram-type="DESCRIPTION" style="width:1461px;height:1134px;background:#FFFFFF;" width="1461px" height="1134px" viewBox="0 0 1461 1134" zoomAndPan="magnify" preserveAspectRatio="none" contentStyleType="text/css"><?plantuml 1.2026.8?><defs/><g font-family="sans-serif" lengthAdjust="spacing"><!--cluster ClientDevice--><g class="cluster" data-qualified-name="ClientDevice" id="ent0002" data-source-line="27"><polygon points="14,140,24,130,722,130,722,937.5,712,947.5,14,947.5,14,140" fill="#FFF" style="stroke:#1C2230;stroke-width:1;stroke-linejoin:miter;stroke-miterlimit:10;"/><line x1="712" y1="140" x2="722" y2="130" style="stroke:#1C2230;stroke-width:1;"/><line x1="14" y1="140" x2="712" y2="140" style="stroke:#1C2230;stroke-width:1;"/><line x1="712" y1="140" x2="712" y2="947.5" style="stroke:#1C2230;stroke-width:1;"/><text x="326.986" y="152.24" fill="#1C2230" font-size="12" textLength="74.027" font-weight="700" font-family="'Helvetica'">Client device</text><text x="308.33" y="164.24" fill="#1C2230" font-size="12" textLength="111.34" font-weight="700" font-family="'Helvetica'">(desktop or mobile)</text></g><!--cluster Browser--><g class="cluster" data-qualified-name="ClientDevice.Browser" id="ent0003" data-source-line="28"><polygon points="34,200,44,190,702,190,702,917.5,692,927.5,34,927.5,34,200" fill="#FFF" style="stroke:#1C2230;stroke-width:1;stroke-linejoin:miter;stroke-miterlimit:10;"/><line x1="692" y1="200" x2="702" y2="190" style="stroke:#1C2230;stroke-width:1;"/><line x1="34" y1="200" x2="692" y2="200" style="stroke:#1C2230;stroke-width:1;"/><line x1="692" y1="200" x2="692" y2="927.5" style="stroke:#1C2230;stroke-width:1;"/><text x="339.991" y="212.24" fill="#1C2230" font-size="12" textLength="48.018" font-weight="700" font-family="'Helvetica'">Browser</text><text x="270.982" y="224.24" fill="#1C2230" font-size="12" textLength="186.035" font-weight="700" font-family="'Helvetica'">(Chrome / Edge / Safari / Firefox)</text><text x="291.646" y="236.24" fill="#1C2230" font-size="12" textLength="144.709" font-weight="700" font-family="'Helvetica'">«execution environment»</text></g><!--cluster Pages--><g class="cluster" data-qualified-name="Pages" id="ent0010" data-source-line="38"><polygon points="738,397,748,387,958,387,958,516,948,526,738,526,738,397" fill="#FFF" style="stroke:#1C2230;stroke-width:1;stroke-linejoin:miter;stroke-miterlimit:10;"/><line x1="948" y1="397" x2="958" y2="387" style="stroke:#1C2230;stroke-width:1;"/><line x1="738" y1="397" x2="948" y2="397" style="stroke:#1C2230;stroke-width:1;"/><line x1="948" y1="397" x2="948" y2="526" style="stroke:#1C2230;stroke-width:1;"/><text x="804.66" y="409.24" fill="#1C2230" font-size="12" textLength="78.68" font-weight="700" font-family="'Helvetica'">GitHub Pages</text><text x="798.323" y="421.24" fill="#1C2230" font-size="12" textLength="91.354" font-weight="700" font-family="'Helvetica'">«static hosting»</text></g><!--cluster Actions--><g class="cluster" data-qualified-name="Actions" id="ent0012" data-source-line="42"><polygon points="1094,580,1104,570,1328,570,1328,687,1318,697,1094,697,1094,580" fill="#FFF" style="stroke:#1C2230;stroke-width:1;stroke-linejoin:miter;stroke-miterlimit:10;"/><line x1="1318" y1="580" x2="1328" y2="570" style="stroke:#1C2230;stroke-width:1;"/><line x1="1094" y1="580" x2="1318" y2="580" style="stroke:#1C2230;stroke-width:1;"/><line x1="1318" y1="580" x2="1318" y2="697" style="stroke:#1C2230;stroke-width:1;"/><text x="1163.336" y="592.24" fill="#1C2230" font-size="12" textLength="87.328" font-weight="700" font-family="'Helvetica'">GitHub Actions</text><text x="1142.983" y="604.24" fill="#1C2230" font-size="12" textLength="128.033" font-weight="700" font-family="'Helvetica'">«scheduled workflow»</text></g><!--cluster Supabase--><g class="cluster" data-qualified-name="Supabase" id="ent0014" data-source-line="46"><polygon points="738,780,748,770,1052,770,1052,1100.5,1042,1110.5,738,1110.5,738,780" fill="#FFF" style="stroke:#1C2230;stroke-width:1;stroke-linejoin:miter;stroke-miterlimit:10;"/><line x1="1042" y1="780" x2="1052" y2="770" style="stroke:#1C2230;stroke-width:1;"/><line x1="738" y1="780" x2="1042" y2="780" style="stroke:#1C2230;stroke-width:1;"/><line x1="1042" y1="780" x2="1042" y2="1110.5" style="stroke:#1C2230;stroke-width:1;"/><text x="811.646" y="792.24" fill="#1C2230" font-size="12" textLength="158.707" font-weight="700" font-family="'Helvetica'">Supabase project shiftswap</text><text x="850.667" y="804.24" fill="#1C2230" font-size="12" textLength="80.666" font-weight="700" font-family="'Helvetica'">(Seoul region)</text><text x="831.976" y="816.24" fill="#1C2230" font-size="12" textLength="118.049" font-weight="700" font-family="'Helvetica'">«managed backend»</text></g><!--entity User--><g class="entity" data-qualified-name="User" id="ent0001" data-source-line="25"><ellipse cx="674.173" cy="12.5" rx="8" ry="8" fill="#F1F1F1" style="stroke:#181818;stroke-width:0.5;"/><path d="M674.173,20.5 L674.173,47.5 M661.173,28.5 L687.173,28.5 M674.173,47.5 L661.173,62.5 M674.173,47.5 L687.173,62.5" style="stroke:#181818;stroke-width:0.5;" fill="none"/><text x="642.5" y="73.24" fill="#000" font-size="12" textLength="63.346" font-family="'Helvetica'">A1 Worker /</text><text x="642.5" y="85.24" fill="#000" font-size="12" textLength="53.355" font-family="'Helvetica'">A2 Owner</text></g><g class="entity" data-qualified-name="GMN28" id="ent0029" data-source-line="64"><path d="M742,630.5 L742,676.5 L969.76,676.5 L969.76,640.5 L959.76,630.5 L742,630.5" style="stroke:#181818;stroke-width:0.5;" fill="#FEFFDD"/><path d="M959.76,630.5 L959.76,640.5 L969.76,640.5 L959.76,630.5" style="stroke:#181818;stroke-width:1;" fill="#FEFFDD"/><text x="748" y="644.74" fill="#000" font-size="12" textLength="195.416" font-family="'Helvetica'">NFR-08: static web application only -</text><text x="748" y="656.74" fill="#000" font-size="12" textLength="206.76" font-family="'Helvetica'">HTML/CSS/ES modules, no build step,</text><text x="748" y="668.74" fill="#000" font-size="12" textLength="110.73" font-family="'Helvetica'">no application server</text></g><g class="entity" data-qualified-name="GMN31" id="ent0032" data-source-line="70"><path d="M1072.5,1029 L1072.5,1063 L1453.658,1063 L1453.658,1039 L1443.658,1029 L1072.5,1029" style="stroke:#181818;stroke-width:0.5;" fill="#FEFFDD"/><path d="M1443.658,1029 L1443.658,1039 L1453.658,1039 L1443.658,1029" style="stroke:#181818;stroke-width:1;" fill="#FEFFDD"/><text x="1078.5" y="1043.24" fill="#000" font-size="12" textLength="334.834" font-family="'Helvetica'">NFR-14: the browser holds only the publishable key; the server</text><text x="1078.5" y="1055.24" fill="#000" font-size="12" textLength="360.158" font-family="'Helvetica'">enforces integrity, rules and server time, not identity (no passwords)</text></g><g class="entity" data-qualified-name="GMN34" id="ent0035" data-source-line="75"><path d="M1072,869 L1072,891 L1378.439,891 L1378.439,879 L1368.439,869 L1072,869" style="stroke:#181818;stroke-width:0.5;" fill="#FEFFDD"/><path d="M1368.439,869 L1368.439,879 L1378.439,879 L1368.439,869" style="stroke:#181818;stroke-width:1;" fill="#FEFFDD"/><text x="1078" y="883.24" fill="#000" font-size="12" textLength="285.439" font-family="'Helvetica'">NFR-16: keeps the free project from pausing (risk R6)</text></g><!--entity StaticAssets--><g class="entity" data-qualified-name="ClientDevice.Browser.StaticAssets" id="ent0004" data-source-line="29"><rect x="465" y="262" width="108.047" height="71" fill="#FFF" style="stroke:#1C2230;stroke-width:0.5;" rx="2.5" ry="2.5"/><polygon points="556.047,267,556.047,281,568.047,281,568.047,273,562.047,267,556.047,267" fill="#FFF" style="stroke:#1C2230;stroke-width:0.5;stroke-linejoin:miter;stroke-miterlimit:10;"/><line x1="562.047" y1="267" x2="562.047" y2="273" style="stroke:#1C2230;stroke-width:0.5;"/><line x1="568.047" y1="273" x2="562.047" y2="273" style="stroke:#1C2230;stroke-width:0.5;"/><text x="475" y="284.24" fill="#000" font-size="12" textLength="78.047" font-family="'Helvetica'">app/index.html</text><text x="475" y="296.24" fill="#000" font-size="12" textLength="61.365" font-family="'Helvetica'">app/main.js</text><text x="475" y="308.24" fill="#000" font-size="12" textLength="52.699" font-family="'Helvetica'">app/ui/*.js</text><text x="475" y="320.24" fill="#000" font-size="12" textLength="75.363" font-family="'Helvetica'">app/styles.css</text></g><!--entity SPA--><g class="entity" data-qualified-name="ClientDevice.Browser.SPA" id="ent0005" data-source-line="30"><rect x="296.5" y="443.5" width="201.373" height="66" fill="#FFF" style="stroke:#1C2230;stroke-width:0.5;" rx="2.5" ry="2.5"/><rect x="477.873" y="448.5" width="15" height="10" fill="#FFF" style="stroke:#1C2230;stroke-width:0.5;"/><rect x="475.873" y="450.5" width="4" height="2" fill="#FFF" style="stroke:#1C2230;stroke-width:0.5;"/><rect x="475.873" y="454.5" width="4" height="2" fill="#FFF" style="stroke:#1C2230;stroke-width:0.5;"/><text x="311.5" y="472.74" fill="#000" font-size="12" textLength="81.375" font-family="'Helvetica'">ShiftSwap SPA</text><text x="311.5" y="484.74" fill="#000" font-size="12" textLength="161.373" font-family="'Helvetica'">(core/services.js, core/rules.js,</text><text x="311.5" y="496.74" fill="#000" font-size="12" textLength="128.707" font-family="'Helvetica'">core/db.js, core/clock.js)</text></g><!--entity Gateway--><g class="entity" data-qualified-name="ClientDevice.Browser.Gateway" id="ent0006" data-source-line="31"><rect x="508" y="620.5" width="174.051" height="66" fill="#FFF" style="stroke:#1C2230;stroke-width:0.5;" rx="2.5" ry="2.5"/><rect x="662.051" y="625.5" width="15" height="10" fill="#FFF" style="stroke:#1C2230;stroke-width:0.5;"/><rect x="660.051" y="627.5" width="4" height="2" fill="#FFF" style="stroke:#1C2230;stroke-width:0.5;"/><rect x="660.051" y="631.5" width="4" height="2" fill="#FFF" style="stroke:#1C2230;stroke-width:0.5;"/><text x="523" y="649.74" fill="#000" font-size="12" textLength="114.076" font-family="'Helvetica'">Shared-data gateway</text><text x="523" y="661.74" fill="#000" font-size="12" textLength="134.051" font-family="'Helvetica'">(core/shared.js, config.js)</text><text x="523" y="673.74" fill="#000" font-size="12" textLength="95.391" font-family="'Helvetica'">shared mode only</text></g><!--entity SqlJs--><g class="entity" data-qualified-name="ClientDevice.Browser.SqlJs" id="ent0007" data-source-line="32"><rect x="280" y="620.5" width="209.682" height="66" fill="#FFF" style="stroke:#1C2230;stroke-width:0.5;" rx="2.5" ry="2.5"/><rect x="469.682" y="625.5" width="15" height="10" fill="#FFF" style="stroke:#1C2230;stroke-width:0.5;"/><rect x="467.682" y="627.5" width="4" height="2" fill="#FFF" style="stroke:#1C2230;stroke-width:0.5;"/><rect x="467.682" y="631.5" width="4" height="2" fill="#FFF" style="stroke:#1C2230;stroke-width:0.5;"/><text x="295" y="649.74" fill="#000" font-size="12" textLength="70.688" font-family="'Helvetica'">sql.js runtime</text><text x="295" y="661.74" fill="#000" font-size="12" textLength="169.682" font-family="'Helvetica'">(sql-wasm.js + sql-wasm.wasm)</text><text x="295" y="673.74" fill="#000" font-size="12" textLength="90.035" font-family="'Helvetica'">«WebAssembly»</text></g><!--entity Replica--><g class="entity" data-qualified-name="ClientDevice.Browser.Replica" id="ent0008" data-source-line="33"><path d="M307,864.5 C307,854.5 385.021,854.5 385.021,854.5 C385.021,854.5 463.043,854.5 463.043,864.5 L463.043,897.5 C463.043,907.5 385.021,907.5 385.021,907.5 C385.021,907.5 307,907.5 307,897.5 L307,864.5" style="stroke:#1C2230;stroke-width:0.5;" fill="#FFF"/><path d="M307,864.5 C307,874.5 385.021,874.5 385.021,874.5 C385.021,874.5 463.043,874.5 463.043,864.5" style="stroke:#1C2230;stroke-width:0.5;" fill="none"/><text x="317" y="887.74" fill="#000" font-size="12" textLength="136.043" font-family="'Helvetica'">In-memory SQLite replica</text><text x="317" y="899.74" fill="#000" font-size="12" textLength="98.701" font-family="'Helvetica'">of the store (sql.js)</text></g><!--entity LocalStorage--><g class="entity" data-qualified-name="ClientDevice.Browser.LocalStorage" id="ent0009" data-source-line="34"><path d="M54.5,625 C54.5,615 158.215,615 158.215,615 C158.215,615 261.93,615 261.93,625 L261.93,682 C261.93,692 158.215,692 158.215,692 C158.215,692 54.5,692 54.5,682 L54.5,625" style="stroke:#1C2230;stroke-width:0.5;" fill="#FFF"/><path d="M54.5,625 C54.5,635 158.215,635 158.215,635 C158.215,635 261.93,635 261.93,625" style="stroke:#1C2230;stroke-width:0.5;" fill="none"/><text x="64.5" y="648.24" fill="#000" font-size="12" textLength="66.709" font-family="'Helvetica'">localStorage</text><text x="64.5" y="660.24" fill="#000" font-size="12" textLength="176.754" font-family="'Helvetica'">shiftswap.db.v2 (local mode only:</text><text x="64.5" y="672.24" fill="#000" font-size="12" textLength="187.43" font-family="'Helvetica'">base64 SQLite snapshot, NFR-05),</text><text x="64.5" y="684.24" fill="#000" font-size="12" textLength="83.373" font-family="'Helvetica'">shiftswap.mode</text></g><!--entity Repo--><g class="entity" data-qualified-name="Pages.Repo" id="ent0011" data-source-line="39"><rect x="792" y="447" width="146.045" height="59" fill="#FFF" style="stroke:#1C2230;stroke-width:0.5;" rx="2.5" ry="2.5"/><polygon points="921.045,452,921.045,466,933.045,466,933.045,458,927.045,452,921.045,452" fill="#FFF" style="stroke:#1C2230;stroke-width:0.5;stroke-linejoin:miter;stroke-miterlimit:10;"/><line x1="927.045" y1="452" x2="927.045" y2="458" style="stroke:#1C2230;stroke-width:0.5;"/><line x1="933.045" y1="458" x2="927.045" y2="458" style="stroke:#1C2230;stroke-width:0.5;"/><text x="802" y="469.24" fill="#000" font-size="12" textLength="106.043" font-family="'Helvetica'">shiftswap repository</text><text x="802" y="481.24" fill="#000" font-size="12" textLength="116.045" font-family="'Helvetica'">/app/ (static files only)</text><text x="802" y="493.24" fill="#000" font-size="12" textLength="107.402" font-family="'Helvetica'">/hub/ (proposal hub)</text></g><!--entity KeepAlive--><g class="entity" data-qualified-name="Actions.KeepAlive" id="ent0013" data-source-line="43"><rect x="1148.5" y="630" width="158.736" height="47" fill="#FFF" style="stroke:#1C2230;stroke-width:0.5;" rx="2.5" ry="2.5"/><polygon points="1290.236,635,1290.236,649,1302.236,649,1302.236,641,1296.236,635,1290.236,635" fill="#FFF" style="stroke:#1C2230;stroke-width:0.5;stroke-linejoin:miter;stroke-miterlimit:10;"/><line x1="1296.236" y1="635" x2="1296.236" y2="641" style="stroke:#1C2230;stroke-width:0.5;"/><line x1="1302.236" y1="641" x2="1296.236" y2="641" style="stroke:#1C2230;stroke-width:0.5;"/><text x="1158.5" y="652.24" fill="#000" font-size="12" textLength="128.736" font-family="'Helvetica'">supabase-keepalive.yml</text><text x="1158.5" y="664.24" fill="#000" font-size="12" textLength="76.037" font-family="'Helvetica'">cron every 6 h</text></g><!--entity Api--><g class="entity" data-qualified-name="Supabase.Api" id="ent0015" data-source-line="47"><rect x="758.5" y="842" width="239.441" height="78" fill="#FFF" style="stroke:#1C2230;stroke-width:0.5;" rx="2.5" ry="2.5"/><rect x="977.941" y="847" width="15" height="10" fill="#FFF" style="stroke:#1C2230;stroke-width:0.5;"/><rect x="975.941" y="849" width="4" height="2" fill="#FFF" style="stroke:#1C2230;stroke-width:0.5;"/><rect x="975.941" y="853" width="4" height="2" fill="#FFF" style="stroke:#1C2230;stroke-width:0.5;"/><text x="773.5" y="871.24" fill="#000" font-size="12" textLength="141.387" font-family="'Helvetica'">API gateway (PostgREST)</text><text x="773.5" y="883.24" fill="#000" font-size="12" textLength="199.441" font-family="'Helvetica'">REST and RPC (app_ functions; hub:</text><text x="773.5" y="895.24" fill="#000" font-size="12" textLength="163.412" font-family="'Helvetica'">save_version, restore_version,</text><text x="773.5" y="907.24" fill="#000" font-size="12" textLength="86.057" font-family="'Helvetica'">add_translation)</text></g><!--entity Pg--><g class="entity" data-qualified-name="Supabase.Pg" id="ent0016" data-source-line="48"><path d="M778.5,1011.5 C778.5,1001.5 878.213,1001.5 878.213,1001.5 C878.213,1001.5 977.926,1001.5 977.926,1011.5 L977.926,1080.5 C977.926,1090.5 878.213,1090.5 878.213,1090.5 C878.213,1090.5 778.5,1090.5 778.5,1080.5 L778.5,1011.5" style="stroke:#1C2230;stroke-width:0.5;" fill="#FFF"/><path d="M778.5,1011.5 C778.5,1021.5 878.213,1021.5 878.213,1021.5 C878.213,1021.5 977.926,1021.5 977.926,1011.5" style="stroke:#1C2230;stroke-width:0.5;" fill="none"/><text x="788.5" y="1034.74" fill="#000" font-size="12" textLength="82.049" font-family="'Helvetica'">PostgreSQL 17</text><text x="788.5" y="1046.74" fill="#000" font-size="12" textLength="179.426" font-family="'Helvetica'">schema app_ (13 tables, 3 RPCs,</text><text x="788.5" y="1058.74" fill="#000" font-size="12" textLength="167.396" font-family="'Helvetica'">row triggers, RLS read policies)</text><text x="788.5" y="1070.74" fill="#000" font-size="12" textLength="174.779" font-family="'Helvetica'">tables doc_versions, doc_heads,</text><text x="788.5" y="1082.74" fill="#000" font-size="12" textLength="118.734" font-family="'Helvetica'">doc_translations (hub)</text></g><g class="link" data-entity-1="ent0001" data-entity-2="ent0003" id="lnk17" data-link-type="dependency"><polygon points="674,189.777,678,180.777,674,184.777,670,180.777,674,189.777" fill="#1C2230" style="stroke:#1C2230;stroke-width:1;stroke-linejoin:miter;stroke-miterlimit:10;"/><path d="M674,88.2 C674,102.871 674,120.396 674,138.963 C674,148.247 674,157.792 674,167.371 C674,172.16 674,176.958 674,181.737 C674,184.126 674,186.51 674,188.886 C674,189.183 674,184.48 674,184.777" style="stroke:#1C2230;stroke-width:1;" fill="none"/><text x="676" y="117.24" fill="#000" font-size="12" textLength="216.773" font-family="'Helvetica'">HTTPS (mobile 360px / desktop 1440px)</text></g><g class="link" data-entity-1="ent0003" data-entity-2="ent0010" id="lnk18" data-link-type="dependency"><polygon points="737.935,421.505,737.333,411.675,735.629,417.069,730.235,415.364,737.935,421.505" fill="#1C2230" style="stroke:#1C2230;stroke-width:1;stroke-linejoin:miter;stroke-miterlimit:10;"/><path d="M702.069,352.502 C702.185,352.726 702.301,352.949 702.418,353.173 C704.281,356.758 706.189,360.43 708.128,364.16 C712.006,371.62 716.004,379.312 720.002,387.004 C724,394.696 727.999,402.388 731.876,409.848 C733.815,413.578 735.723,417.25 737.586,420.834 C737.703,421.058 735.513,416.846 735.629,417.069" style="stroke:#1C2230;stroke-width:1;" fill="none"/><text x="717" y="368.24" fill="#000" font-size="12" textLength="258.756" font-family="'Helvetica'">GET /shiftswap/app/* (HTTPS, first load / reload)</text></g><g class="link" data-entity-1="ent0010" data-entity-2="ent0004" id="lnk19" data-link-type="dependency"><polygon points="537.794,333.284,539.391,343.002,540.538,337.463,546.077,338.611,537.794,333.284" fill="#1C2230" style="stroke:#1C2230;stroke-width:1;stroke-linejoin:miter;stroke-miterlimit:10;"/><path d="M737.998,417.726 C737.918,417.612 737.837,417.499 737.757,417.387 C737.596,417.161 737.434,416.935 737.271,416.71 C736.622,415.809 735.96,414.913 735.287,414.023 C732.595,410.463 729.719,407.005 726.655,403.732 C720.528,397.186 713.651,391.383 706,387 C682.425,373.494 608.118,391.51 584,379 C564.547,368.909 551.617,354.333 540.538,337.463" style="stroke:#1C2230;stroke-width:1;" fill="none"/><text x="596.339" y="362.24" fill="#000" font-size="12" textLength="91.359" font-family="'Helvetica'">serves static files</text><text x="586" y="374.24" fill="#000" font-size="12" textLength="112.037" font-family="'Helvetica'">(no server-side logic)</text></g><g class="link" data-entity-1="ent0004" data-entity-2="ent0005" id="lnk20" data-link-type="dependency"><polygon points="405.603,443.443,412.09,436.033,407.085,438.668,404.45,433.662,405.603,443.443" fill="#1C2230" style="stroke:#1C2230;stroke-width:1;stroke-linejoin:miter;stroke-miterlimit:10;"/><path d="M466.892,333.305 C460.729,338.766 454.9,344.705 450,351 C428.356,378.807 415.362,411.996 407.085,438.668" style="stroke:#1C2230;stroke-width:1;" fill="none"/><text x="452" y="368.24" fill="#000" font-size="12" textLength="56.033" font-family="'Helvetica'">bootstraps</text></g><g class="link" data-entity-1="ent0005" data-entity-2="ent0007" id="lnk21" data-link-type="dependency"><polygon points="383.683,620.476,387.457,611.379,383.558,615.478,379.459,611.579,383.683,620.476" fill="#1C2230" style="stroke:#1C2230;stroke-width:1;stroke-linejoin:miter;stroke-miterlimit:10;"/><path d="M389.687,509.617 C388.176,517.545 386.801,526.046 386,534 C383.063,563.17 382.96,591.584 383.558,615.478" style="stroke:#1C2230;stroke-width:1;" fill="none"/><text x="388" y="545.24" fill="#000" font-size="12" textLength="139.383" font-family="'Helvetica'">in-memory SQLite queries</text><text x="397" y="557.24" fill="#000" font-size="12" textLength="121.383" font-family="'Helvetica'">(no network round-trip)</text></g><g class="link" data-entity-1="ent0007" data-entity-2="ent0008" id="lnk22" data-link-type="dependency"><polygon points="385,854.395,389,845.395,385,849.395,381,845.395,385,854.395" fill="#1C2230" style="stroke:#1C2230;stroke-width:1;stroke-linejoin:miter;stroke-miterlimit:10;"/><path d="M385,686.809 C385,731.99 385,808.131 385,849.395" style="stroke:#1C2230;stroke-width:1;" fill="none"/></g><g class="link" data-entity-1="ent0005" data-entity-2="ent0006" id="lnk23" data-link-type="dependency"><polygon points="583.814,620.275,584.17,610.433,581.95,615.636,576.747,613.415,583.814,620.275" fill="#1C2230" style="stroke:#1C2230;stroke-width:1;stroke-linejoin:miter;stroke-miterlimit:10;"/><path d="M493.149,509.6 C506.047,516.41 518.445,524.487 529,534 C555.151,557.57 571.403,589.384 581.95,615.636" style="stroke:#1C2230;stroke-width:1;" fill="none"/><text x="582.675" y="545.24" fill="#000" font-size="12" textLength="73.377" font-family="'Helvetica'">shared mode:</text><text x="556" y="557.24" fill="#000" font-size="12" textLength="126.727" font-family="'Helvetica'">every command, polling</text></g><g class="link" data-entity-1="ent0006" data-entity-2="ent0015" id="lnk24" data-link-type="dependency"><polygon points="829.843,841.627,825.297,832.89,825.932,838.511,820.311,839.147,829.843,841.627" fill="#1C2230" style="stroke:#1C2230;stroke-width:1;stroke-linejoin:miter;stroke-miterlimit:10;"/><path d="M635.246,686.569 C686.52,727.425 771.132,794.845 825.932,838.511" style="stroke:#1C2230;stroke-width:1;" fill="none"/><text x="781.396" y="721.24" fill="#000" font-size="12" textLength="110.01" font-family="'Helvetica'">HTTPS, REST/RPC,</text><text x="782.366" y="733.24" fill="#000" font-size="12" textLength="108.07" font-family="'Helvetica'">publishable key only</text><text x="731" y="745.24" fill="#000" font-size="12" textLength="210.803" font-family="'Helvetica'">app_snapshot, app_commit, app_reset,</text><text x="756.365" y="757.24" fill="#000" font-size="12" textLength="160.072" font-family="'Helvetica'">GET app_store.rev every 10 s</text></g><g class="link" data-entity-1="ent0015" data-entity-2="ent0016" id="lnk25" data-link-type="dependency"><polygon points="878,1001.264,882,992.264,878,996.264,874,992.264,878,1001.264" fill="#1C2230" style="stroke:#1C2230;stroke-width:1;stroke-linejoin:miter;stroke-miterlimit:10;"/><path d="M878,920.216 C878,944.493 878,970.989 878,996.264" style="stroke:#1C2230;stroke-width:1;" fill="none"/><text x="881.995" y="966.74" fill="#000" font-size="12" textLength="140.057" font-family="'Helvetica'">SQL (API roles: read-only,</text><text x="880" y="978.74" fill="#000" font-size="12" textLength="144.047" font-family="'Helvetica'">writes only via the 3 RPCs)</text></g><g class="link" data-entity-1="ent0005" data-entity-2="ent0009" id="lnk26" data-link-type="dependency"><polygon points="156.603,614.954,160.979,606.13,156.814,609.958,152.986,605.793,156.603,614.954" fill="#1C2230" style="stroke:#1C2230;stroke-width:1;stroke-linejoin:miter;stroke-miterlimit:10;"/><path d="M296.284,493.88 C249.272,503.523 200.141,517.145 184,534 C163.533,555.373 157.911,583.984 156.814,609.958" style="stroke:#1C2230;stroke-width:1;" fill="none"/><text x="195.334" y="545.24" fill="#000" font-size="12" textLength="174.756" font-family="'Helvetica'">local mode: export DB after each</text><text x="186" y="557.24" fill="#000" font-size="12" textLength="193.424" font-family="'Helvetica'">committed transaction / load on start</text></g><g class="link" data-entity-1="ent0012" data-entity-2="ent0015" id="lnk27" data-link-type="dependency"><polygon points="900.197,841.779,908.345,836.247,902.836,837.533,901.551,832.024,900.197,841.779" fill="#1C2230" style="stroke:#1C2230;stroke-width:1;stroke-linejoin:miter;stroke-miterlimit:10;"/><path d="M1093.679,664.224 C1093.552,664.272 1093.425,664.321 1093.298,664.37 C1093.043,664.467 1092.788,664.565 1092.531,664.664 C1092.017,664.862 1091.499,665.062 1090.977,665.265 C1089.932,665.671 1088.869,666.089 1087.791,666.517 C1085.634,667.374 1083.413,668.275 1081.14,669.219 C1076.595,671.107 1071.841,673.169 1066.971,675.401 C1047.494,684.326 1026.174,695.958 1009,710 C962.991,747.618 926.101,800.106 902.836,837.533" style="stroke:#1C2230;stroke-width:1;" fill="none"/><text x="1011" y="733.24" fill="#000" font-size="12" textLength="129.387" font-family="'Helvetica'">HTTPS GET doc_heads</text><text x="1030.336" y="745.24" fill="#000" font-size="12" textLength="90.715" font-family="'Helvetica'">(publishable key)</text></g><g class="link" data-entity-1="ent0010" data-entity-2="ent0029" id="lnk30" data-link-type="association"><path d="M783,526 C800.451,564.025 825.732,605.584 841.501,630.325" style="stroke:#1C2230;stroke-width:1;stroke-dasharray:7,7;" fill="none"/></g><g class="link" data-entity-1="ent0014" data-entity-2="ent0032" id="lnk33" data-link-type="association"><path d="M1052.094,935.515 C1052.151,935.588 1052.208,935.661 1052.265,935.735 C1052.38,935.881 1052.494,936.026 1052.609,936.172 C1053.069,936.754 1053.533,937.331 1054.003,937.903 C1054.942,939.047 1055.902,940.17 1056.882,941.267 C1058.841,943.461 1060.881,945.551 1063,947.5 C1105.645,986.727 1166.98,1013.459 1210.462,1028.871" style="stroke:#1C2230;stroke-width:1;stroke-dasharray:7,7;" fill="none"/></g><g class="link" data-entity-1="ent0012" data-entity-2="ent0035" id="lnk36" data-link-type="association"><path d="M1140,697 C1169.133,762.638 1206.114,840.502 1219.692,868.92" style="stroke:#1C2230;stroke-width:1;stroke-dasharray:7,7;" fill="none"/></g><?plantuml-src fLR1Sjis4BthAxRgHKebox9TjwDaCgEuTfpMJLNJdLmquu58a4940Wm0IbOx-VU-1Kb9LffBcaDC08ktks_VBlHTQKLM2Ch5rbIUN26zqABZLagNmeg24fcAAlStHlltef3KlPNvMdeLY-v_MqNgRqdZiuD3jnI9sIYTKIfo9mzE5Y9UPTPKEhaokR7q_KtuTs2XJIBfdmxHcw-OuiJOHDfcTtnrTdP-YbqEvVdUvmFOs1IbqLBxRy0-n17MgrJ4_nTcQgtPF3y-u5PuiH1EVfEF3eB3HdSwfW_6hgIbqLnFp-YFZPQsIyBHNqxQJYVmtBtA5NEIoBMAvLpt4kbMtfG4XC8iL2xxuKfjzakm2b7LjzyW2O3XtjNI6cXbHDT9ndyYaGghy76Zh4pDKt-kNxsIJpAkl3AQf5uhQtG1qDUlWuS6Ae3JdkMkACkHqebyEbdw8fzhNXT2wPEFhbvKQlHYjt1-cqjt4ZiNG2CleDkfSzAxWBjNGJTQgjH76r5ID9iYWzXOEK84dA83u832ZgtoUZdNOPqizcTnRk8LbZL7WFdIXx0o6N8zAHDURiHsvoaSDLWwLHdZp7Mz3Uv1hz7vDY2_hQyUexjFEIwHhRHN1HSF6yEDS0Nl_a2x5VyN-FyW5yn5iSYt3UlHf_pNcfcTvhhlzB2GXR5RYlwyKrwIbMMExfzhav9VIdBGbwHUxRxE_RusEK82FIAFO2qooQc1S0V2Jy3X-enwuNYVwcIk-ThbHUlNeQHkQVo0tj_S3qz_x0yEGVXUy7rtu0K1VEOUgENvLldRQa4p73ZEtmKvqD8uZzdKK11EW-psejjvuToDKm17uKQiCEHTewHe3XS21xUZPRN0KMaDp94KbZjYp1S1JMDkWZgaU2aJI2oX3PerpSsc2QknEGwiAWEtmvMKfSZLMfvikIjYoqsrbYZQ9Iq3m6-mcBB5tdtKt2R4-L42RvSdn1D9K-N8DuFRe9O2pqA6m7XaIvsqYcanEB03CKvdxrg9Ksy6XhFxw-W1GFo7X4xeVdP5FL3uI6cbw-nUCb6eknDh-OZe7JO7Y24eRBU1rawIHs-5ThdWUpMrqr9r3jKMd5e9yT3u9s22MJnpmM5lV4umGy46TCw1S3jZu92tAilWPa3tTn4SYuHA0oKhoSrONw74n6qiCEJL4eOCmTy7SJdgxGe_ovXt7hKq7BxUZRS9tJuyp2BgrTELpYzFooUCoNRkZYykiD7ljFPyjrReXDvUFz1eLxAWnXVK2tW3oD4wJxb11YCamX_zJdsJCGud8Q1upk7aKCgGW3RrWHqw1Rta9bDnl_FiQi2QJG6nCCOx95-w3c-40vucE5B74-HJ9QrgNMZfMUiKthGXAb32HxZ96EqaQJ6RsSSnxqSZ95EB7GA4J9C1Lor7JtTQSxuAWRHyexwGuGYLHzNAQf4heA6uj9BRqCFX-NZSJnnUCRXglg59wN6NQn0iMQ4dLgwRhXkVakkmmr2m37vPXptk2cl0xYI8QyYkWBAnOAKU7hHM8apLMfVzNUA7Omrm-s4v8VbK6klfbpSaKW-HI14l-NdYS3qe2f8KeSKWXg09VA7OrdVQkN94K13NJjeer159VPuXgEJ2U6yAmaiGj8K63BFvvqchfOrSC45Sm-0_v3Y4tUt3xtUZgoWQNKUSHXMQ4N9OL2fFS5kMW_2xujdjMeuTZ1zYzry4qKwZ9exnnIHmkMYwPsdofA6PjuzoUbc_PhKBmc-Ir5Yy_P2lbnagjCKeuZ33zAhDY5zQ3jiJEWJlhiUqGyobS0wYJb2_hyRQCD-6UZaX7k8k195QkP_AANvA0R5o_0EwPvLRqVtb7lXV?></g></svg>