<svg xmlns="http://www.w3.org/2000/svg" xmlns:xlink="http://www.w3.org/1999/xlink" contentStyleType="text/css" data-diagram-type="CLASS" height="1127px" preserveAspectRatio="none" style="width:943px;height:1127px;background:#FFFFFF;" version="1.1" viewBox="0 0 943 1127" width="943px" zoomAndPan="magnify"><defs/><g><!--class Workplace--><g class="entity" data-entity="Workplace" data-source-line="14" data-uid="ent0002" id="entity_Workplace"><rect fill="#F1F1F1" height="94" rx="2.5" ry="2.5" style="stroke:#181818;stroke-width:0.5;" width="172.0547" x="355.7381" y="12"/><ellipse cx="409.4236" cy="27" fill="#ADD1B2" rx="10" ry="10" style="stroke:#181818;stroke-width:1;"/><path d="M412.3572,31.5 L406.908,31.5 L406.908,22.752 L412.3572,22.752 L412.3572,24.2754 L408.6365,24.2754 L408.6365,26.1621 L412.0057,26.1621 L412.0057,27.6855 L408.6365,27.6855 L408.6365,29.9766 L412.3572,29.9766 Z " fill="#000000"/><text fill="#000000" font-family="Helvetica" font-size="12" lengthAdjust="spacing" textLength="56.6836" x="428.4236" y="30.2402">Workplace</text><line style="stroke:#181818;stroke-width:0.5;" x1="356.7381" x2="526.7928" y1="42" y2="42"/><ellipse cx="366.7381" cy="53.5" fill="#000000" rx="3" ry="3" style="stroke:#000000;stroke-width:1;"/><text fill="#000000" font-family="Helvetica" font-size="12" lengthAdjust="spacing" textLength="105.3691" x="374.7381" y="55.2402">id : INTEGER &#171;PK&#187;</text><line style="stroke:#181818;stroke-width:1;" x1="356.7381" x2="526.7928" y1="62" y2="62"/><text fill="#000000" font-family="Helvetica" font-size="12" lengthAdjust="spacing" textLength="70.6875" x="361.7381" y="75.2402">name : TEXT</text><text fill="#000000" font-family="Helvetica" font-size="12" lengthAdjust="spacing" textLength="160.0547" x="361.7381" y="87.2402">regularEmployees : INTEGER</text><text fill="#000000" font-family="Helvetica" font-size="12" lengthAdjust="spacing" textLength="152.7422" x="361.7381" y="99.2402">subAttendancePolicy : TEXT</text></g><!--class Worker--><g class="entity" data-entity="Worker" data-source-line="22" data-uid="ent0003" id="entity_Worker"><rect fill="#F1F1F1" height="178" rx="2.5" ry="2.5" style="stroke:#181818;stroke-width:0.5;" width="184.3867" x="349.7381" y="143"/><ellipse cx="418.5984" cy="158" fill="#ADD1B2" rx="10" ry="10" style="stroke:#181818;stroke-width:1;"/><path d="M421.532,162.5 L416.0828,162.5 L416.0828,153.752 L421.532,153.752 L421.532,155.2754 L417.8113,155.2754 L417.8113,157.1621 L421.1805,157.1621 L421.1805,158.6855 L417.8113,158.6855 L417.8113,160.9766 L421.532,160.9766 Z " fill="#000000"/><text fill="#000000" font-family="Helvetica" font-size="12" lengthAdjust="spacing" textLength="38.666" x="437.5984" y="161.2402">Worker</text><line style="stroke:#181818;stroke-width:0.5;" x1="350.7381" x2="533.1248" y1="173" y2="173"/><ellipse cx="360.7381" cy="184.5" fill="#000000" rx="3" ry="3" style="stroke:#000000;stroke-width:1;"/><text fill="#000000" font-family="Helvetica" font-size="12" lengthAdjust="spacing" textLength="105.3691" x="368.7381" y="186.2402">id : INTEGER &#171;PK&#187;</text><line style="stroke:#181818;stroke-width:1;" x1="350.7381" x2="533.1248" y1="193" y2="193"/><polygon fill="none" points="360.7381,199.5,364.7381,203.5,360.7381,207.5,356.7381,203.5" style="stroke:#B38D22;stroke-width:1;"/><text fill="#000000" font-family="Helvetica" font-size="12" lengthAdjust="spacing" textLength="159.3867" x="368.7381" y="206.2402">workplaceId : INTEGER &#171;FK&#187;</text><text fill="#000000" font-family="Helvetica" font-size="12" lengthAdjust="spacing" textLength="60.6797" x="368.7381" y="218.2402">role : TEXT</text><text fill="#000000" font-family="Helvetica" font-size="12" lengthAdjust="spacing" textLength="70.6875" x="368.7381" y="230.2402">name : TEXT</text><text fill="#000000" font-family="Helvetica" font-size="12" lengthAdjust="spacing" textLength="74.0391" x="368.7381" y="242.2402">phone : TEXT</text><text fill="#000000" font-family="Helvetica" font-size="12" lengthAdjust="spacing" textLength="127.3711" x="368.7381" y="254.2402">hourlyWage : INTEGER</text><text fill="#000000" font-family="Helvetica" font-size="12" lengthAdjust="spacing" textLength="108.6973" x="368.7381" y="266.2402">contractStart : TEXT</text><text fill="#000000" font-family="Helvetica" font-size="12" lengthAdjust="spacing" textLength="104.707" x="368.7381" y="278.2402">contractEnd : TEXT</text><text fill="#000000" font-family="Helvetica" font-size="12" lengthAdjust="spacing" textLength="112.0605" x="368.7381" y="290.2402">probationEnd : TEXT</text><text fill="#000000" font-family="Helvetica" font-size="12" lengthAdjust="spacing" textLength="128.707" x="368.7381" y="302.2402">simpleLabor : INTEGER</text><text fill="#000000" font-family="Helvetica" font-size="12" lengthAdjust="spacing" textLength="94.6875" x="368.7381" y="314.2402">active : INTEGER</text></g><!--class FixedSchedule--><g class="entity" data-entity="FixedSchedule" data-source-line="37" data-uid="ent0004" id="entity_FixedSchedule"><rect fill="#F1F1F1" height="106" rx="2.5" ry="2.5" style="stroke:#181818;stroke-width:0.5;" width="166.3691" x="247.7381" y="410"/><ellipse cx="287.3819" cy="425" fill="#ADD1B2" rx="10" ry="10" style="stroke:#181818;stroke-width:1;"/><path d="M290.3155,429.5 L284.8663,429.5 L284.8663,420.752 L290.3155,420.752 L290.3155,422.2754 L286.5948,422.2754 L286.5948,424.1621 L289.964,424.1621 L289.964,425.6855 L286.5948,425.6855 L286.5948,427.9766 L290.3155,427.9766 Z " fill="#000000"/><text fill="#000000" font-family="Helvetica" font-size="12" lengthAdjust="spacing" textLength="79.3828" x="306.0806" y="428.2402">FixedSchedule</text><line style="stroke:#181818;stroke-width:0.5;" x1="248.7381" x2="413.1072" y1="440" y2="440"/><ellipse cx="258.7381" cy="451.5" fill="#000000" rx="3" ry="3" style="stroke:#000000;stroke-width:1;"/><text fill="#000000" font-family="Helvetica" font-size="12" lengthAdjust="spacing" textLength="105.3691" x="266.7381" y="453.2402">id : INTEGER &#171;PK&#187;</text><line style="stroke:#181818;stroke-width:1;" x1="248.7381" x2="413.1072" y1="460" y2="460"/><polygon fill="none" points="258.7381,466.5,262.7381,470.5,258.7381,474.5,254.7381,470.5" style="stroke:#B38D22;stroke-width:1;"/><text fill="#000000" font-family="Helvetica" font-size="12" lengthAdjust="spacing" textLength="141.3691" x="266.7381" y="473.2402">workerId : INTEGER &#171;FK&#187;</text><text fill="#000000" font-family="Helvetica" font-size="12" lengthAdjust="spacing" textLength="110.7012" x="266.7381" y="485.2402">weekday : INTEGER</text><text fill="#000000" font-family="Helvetica" font-size="12" lengthAdjust="spacing" textLength="90.6738" x="266.7381" y="497.2402">startTime : TEXT</text><text fill="#000000" font-family="Helvetica" font-size="12" lengthAdjust="spacing" textLength="87.3574" x="266.7381" y="509.2402">endTime : TEXT</text></g><!--class Shift--><g class="entity" data-entity="Shift" data-source-line="46" data-uid="ent0005" id="entity_Shift"><rect fill="#F1F1F1" height="142" rx="2.5" ry="2.5" style="stroke:#181818;stroke-width:0.5;" width="207.7188" x="55.7381" y="620"/><ellipse cx="143.5916" cy="635" fill="#ADD1B2" rx="10" ry="10" style="stroke:#181818;stroke-width:1;"/><path d="M146.5252,639.5 L141.076,639.5 L141.076,630.752 L146.5252,630.752 L146.5252,632.2754 L142.8045,632.2754 L142.8045,634.1621 L146.1736,634.1621 L146.1736,635.6855 L142.8045,635.6855 L142.8045,637.9766 L146.5252,637.9766 Z " fill="#000000"/><text fill="#000000" font-family="Helvetica" font-size="12" lengthAdjust="spacing" textLength="24.0117" x="162.5916" y="638.2402">Shift</text><line style="stroke:#181818;stroke-width:0.5;" x1="56.7381" x2="262.4568" y1="650" y2="650"/><ellipse cx="66.7381" cy="661.5" fill="#000000" rx="3" ry="3" style="stroke:#000000;stroke-width:1;"/><text fill="#000000" font-family="Helvetica" font-size="12" lengthAdjust="spacing" textLength="105.3691" x="74.7381" y="663.2402">id : INTEGER &#171;PK&#187;</text><line style="stroke:#181818;stroke-width:1;" x1="56.7381" x2="262.4568" y1="670" y2="670"/><text fill="#000000" font-family="Helvetica" font-size="12" lengthAdjust="spacing" textLength="91.3535" x="74.7381" y="683.2402">workDate : TEXT</text><text fill="#000000" font-family="Helvetica" font-size="12" lengthAdjust="spacing" textLength="90.6738" x="74.7381" y="695.2402">startTime : TEXT</text><text fill="#000000" font-family="Helvetica" font-size="12" lengthAdjust="spacing" textLength="87.3574" x="74.7381" y="707.2402">endTime : TEXT</text><polygon fill="none" points="66.7381,712.5,70.7381,716.5,66.7381,720.5,62.7381,716.5" style="stroke:#B38D22;stroke-width:1;"/><text fill="#000000" font-family="Helvetica" font-size="12" lengthAdjust="spacing" textLength="141.3691" x="74.7381" y="719.2402">workerId : INTEGER &#171;FK&#187;</text><polygon fill="none" points="66.7381,724.5,70.7381,728.5,66.7381,732.5,62.7381,728.5" style="stroke:#B38D22;stroke-width:1;"/><text fill="#000000" font-family="Helvetica" font-size="12" lengthAdjust="spacing" textLength="182.7188" x="74.7381" y="731.2402">originalWorkerId : INTEGER &#171;FK&#187;</text><polygon fill="none" points="66.7381,736.5,70.7381,740.5,66.7381,744.5,62.7381,740.5" style="stroke:#B38D22;stroke-width:1;"/><text fill="#000000" font-family="Helvetica" font-size="12" lengthAdjust="spacing" textLength="180.75" x="74.7381" y="743.2402">fixedScheduleId : INTEGER &#171;FK&#187;</text><text fill="#000000" font-family="Helvetica" font-size="12" lengthAdjust="spacing" textLength="72.6855" x="74.7381" y="755.2402">status : TEXT</text></g><!--class SubRequest--><g class="entity" data-entity="SubRequest" data-source-line="58" data-uid="ent0006" id="entity_SubRequest"><rect fill="#F1F1F1" height="154" rx="2.5" ry="2.5" style="stroke:#181818;stroke-width:0.5;" width="181.0586" x="302.2381" y="799"/><ellipse cx="355.7439" cy="814" fill="#ADD1B2" rx="10" ry="10" style="stroke:#181818;stroke-width:1;"/><path d="M358.6775,818.5 L353.2283,818.5 L353.2283,809.752 L358.6775,809.752 L358.6775,811.2754 L354.9568,811.2754 L354.9568,813.1621 L358.326,813.1621 L358.326,814.6855 L354.9568,814.6855 L354.9568,816.9766 L358.6775,816.9766 Z " fill="#000000"/><text fill="#000000" font-family="Helvetica" font-size="12" lengthAdjust="spacing" textLength="66.0469" x="374.7439" y="817.2402">SubRequest</text><line style="stroke:#181818;stroke-width:0.5;" x1="303.2381" x2="482.2967" y1="829" y2="829"/><ellipse cx="313.2381" cy="840.5" fill="#000000" rx="3" ry="3" style="stroke:#000000;stroke-width:1;"/><text fill="#000000" font-family="Helvetica" font-size="12" lengthAdjust="spacing" textLength="105.3691" x="321.2381" y="842.2402">id : INTEGER &#171;PK&#187;</text><line style="stroke:#181818;stroke-width:1;" x1="303.2381" x2="482.2967" y1="849" y2="849"/><polygon fill="none" points="313.2381,855.5,317.2381,859.5,313.2381,863.5,309.2381,859.5" style="stroke:#B38D22;stroke-width:1;"/><text fill="#000000" font-family="Helvetica" font-size="12" lengthAdjust="spacing" textLength="127.3711" x="321.2381" y="862.2402">shiftId : INTEGER &#171;FK&#187;</text><polygon fill="none" points="313.2381,867.5,317.2381,871.5,313.2381,875.5,309.2381,871.5" style="stroke:#B38D22;stroke-width:1;"/><text fill="#000000" font-family="Helvetica" font-size="12" lengthAdjust="spacing" textLength="156.0586" x="321.2381" y="874.2402">requesterId : INTEGER &#171;FK&#187;</text><polygon fill="none" points="313.2381,879.5,317.2381,883.5,313.2381,887.5,309.2381,883.5" style="stroke:#B38D22;stroke-width:1;"/><text fill="#000000" font-family="Helvetica" font-size="12" lengthAdjust="spacing" textLength="151.3887" x="321.2381" y="886.2402">acceptorId : INTEGER &#171;FK&#187;</text><text fill="#000000" font-family="Helvetica" font-size="12" lengthAdjust="spacing" textLength="77.3613" x="321.2381" y="898.2402">reason : TEXT</text><text fill="#000000" font-family="Helvetica" font-size="12" lengthAdjust="spacing" textLength="86.0449" x="321.2381" y="910.2402">deadline : TEXT</text><text fill="#000000" font-family="Helvetica" font-size="12" lengthAdjust="spacing" textLength="72.6855" x="321.2381" y="922.2402">status : TEXT</text><text fill="#000000" font-family="Helvetica" font-size="12" lengthAdjust="spacing" textLength="92.0332" x="321.2381" y="934.2402">createdAt : TEXT</text><text fill="#000000" font-family="Helvetica" font-size="12" lengthAdjust="spacing" textLength="94.043" x="321.2381" y="946.2402">decidedAt : TEXT</text></g><!--class SubRequestTarget--><g class="entity" data-entity="SubRequestTarget" data-source-line="71" data-uid="ent0007" id="entity_SubRequestTarget"><rect fill="#F1F1F1" height="106" rx="2.5" ry="2.5" style="stroke:#181818;stroke-width:0.5;" width="194.4063" x="49.7381" y="1002"/><ellipse cx="92.5769" cy="1017" fill="#ADD1B2" rx="10" ry="10" style="stroke:#181818;stroke-width:1;"/><path d="M95.5105,1021.5 L90.0613,1021.5 L90.0613,1012.752 L95.5105,1012.752 L95.5105,1014.2754 L91.7898,1014.2754 L91.7898,1016.1621 L95.159,1016.1621 L95.159,1017.6855 L91.7898,1017.6855 L91.7898,1019.9766 L95.5105,1019.9766 Z " fill="#000000"/><text fill="#000000" font-family="Helvetica" font-size="12" lengthAdjust="spacing" textLength="100.7285" x="111.5769" y="1020.2402">SubRequestTarget</text><line style="stroke:#181818;stroke-width:0.5;" x1="50.7381" x2="243.1443" y1="1032" y2="1032"/><ellipse cx="60.7381" cy="1043.5" fill="#000000" rx="3" ry="3" style="stroke:#000000;stroke-width:1;"/><text fill="#000000" font-family="Helvetica" font-size="12" lengthAdjust="spacing" textLength="105.3691" x="68.7381" y="1045.2402">id : INTEGER &#171;PK&#187;</text><line style="stroke:#181818;stroke-width:1;" x1="50.7381" x2="243.1443" y1="1052" y2="1052"/><polygon fill="none" points="60.7381,1058.5,64.7381,1062.5,60.7381,1066.5,56.7381,1062.5" style="stroke:#B38D22;stroke-width:1;"/><text fill="#000000" font-family="Helvetica" font-size="12" lengthAdjust="spacing" textLength="169.4063" x="68.7381" y="1065.2402">subRequestId : INTEGER &#171;FK&#187;</text><polygon fill="none" points="60.7381,1070.5,64.7381,1074.5,60.7381,1078.5,56.7381,1074.5" style="stroke:#B38D22;stroke-width:1;"/><text fill="#000000" font-family="Helvetica" font-size="12" lengthAdjust="spacing" textLength="141.3691" x="68.7381" y="1077.2402">workerId : INTEGER &#171;FK&#187;</text><text fill="#000000" font-family="Helvetica" font-size="12" lengthAdjust="spacing" textLength="90.0352" x="68.7381" y="1089.2402">response : TEXT</text><text fill="#000000" font-family="Helvetica" font-size="12" lengthAdjust="spacing" textLength="108.7207" x="68.7381" y="1101.2402">respondedAt : TEXT</text></g><!--class Attendance--><g class="entity" data-entity="Attendance" data-source-line="80" data-uid="ent0008" id="entity_Attendance"><rect fill="#F1F1F1" height="106" rx="2.5" ry="2.5" style="stroke:#181818;stroke-width:0.5;" width="205.709" x="56.7381" y="823"/><ellipse cx="125.2351" cy="838" fill="#ADD1B2" rx="10" ry="10" style="stroke:#181818;stroke-width:1;"/><path d="M128.1687,842.5 L122.7195,842.5 L122.7195,833.752 L128.1687,833.752 L128.1687,835.2754 L124.448,835.2754 L124.448,837.1621 L127.8172,837.1621 L127.8172,838.6855 L124.448,838.6855 L124.448,840.9766 L128.1687,840.9766 Z " fill="#000000"/><text fill="#000000" font-family="Helvetica" font-size="12" lengthAdjust="spacing" textLength="60.7148" x="144.2351" y="841.2402">Attendance</text><line style="stroke:#181818;stroke-width:0.5;" x1="57.7381" x2="261.4471" y1="853" y2="853"/><ellipse cx="67.7381" cy="864.5" fill="#000000" rx="3" ry="3" style="stroke:#000000;stroke-width:1;"/><text fill="#000000" font-family="Helvetica" font-size="12" lengthAdjust="spacing" textLength="105.3691" x="75.7381" y="866.2402">id : INTEGER &#171;PK&#187;</text><line style="stroke:#181818;stroke-width:1;" x1="57.7381" x2="261.4471" y1="873" y2="873"/><polygon fill="none" points="67.7381,879.5,71.7381,883.5,67.7381,887.5,63.7381,883.5" style="stroke:#B38D22;stroke-width:1;"/><text fill="#000000" font-family="Helvetica" font-size="12" lengthAdjust="spacing" textLength="180.709" x="75.7381" y="886.2402">shiftId : INTEGER &#171;FK, UNIQUE&#187;</text><text fill="#000000" font-family="Helvetica" font-size="12" lengthAdjust="spacing" textLength="78.0176" x="75.7381" y="898.2402">clockIn : TEXT</text><text fill="#000000" font-family="Helvetica" font-size="12" lengthAdjust="spacing" textLength="87.3516" x="75.7381" y="910.2402">clockOut : TEXT</text><text fill="#000000" font-family="Helvetica" font-size="12" lengthAdjust="spacing" textLength="116.0273" x="75.7381" y="922.2402">confirmed : INTEGER</text></g><!--class WeeklySummary--><g class="entity" data-entity="WeeklySummary" data-source-line="89" data-uid="ent0009" id="entity_WeeklySummary"><rect fill="#F1F1F1" height="174" rx="2.5" ry="2.5" style="stroke:#181818;stroke-width:0.5;" width="185.7402" x="507.7381" y="376"/><ellipse cx="551.2684" cy="391" fill="#ADD1B2" rx="10" ry="10" style="stroke:#181818;stroke-width:1;"/><path d="M554.2019,395.5 L548.7527,395.5 L548.7527,386.752 L554.2019,386.752 L554.2019,388.2754 L550.4812,388.2754 L550.4812,390.1621 L553.8504,390.1621 L553.8504,391.6855 L550.4812,391.6855 L550.4812,393.9766 L554.2019,393.9766 Z " fill="#000000"/><text fill="#000000" font-family="Helvetica" font-size="12" lengthAdjust="spacing" textLength="90.6797" x="570.2684" y="394.2402">WeeklySummary</text><line style="stroke:#181818;stroke-width:0.5;" x1="508.7381" x2="692.4783" y1="406" y2="406"/><ellipse cx="518.7381" cy="417.5" fill="#000000" rx="3" ry="3" style="stroke:#000000;stroke-width:1;"/><text fill="#000000" font-family="Helvetica" font-size="12" lengthAdjust="spacing" textLength="105.3691" x="526.7381" y="419.2402">id : INTEGER &#171;PK&#187;</text><line style="stroke:#181818;stroke-width:1;" x1="508.7381" x2="692.4783" y1="426" y2="426"/><polygon fill="none" points="518.7381,432.5,522.7381,436.5,518.7381,440.5,514.7381,436.5" style="stroke:#B38D22;stroke-width:1;"/><text fill="#000000" font-family="Helvetica" font-size="12" lengthAdjust="spacing" textLength="141.3691" x="526.7381" y="439.2402">workerId : INTEGER &#171;FK&#187;</text><text fill="#000000" font-family="Helvetica" font-size="12" lengthAdjust="spacing" textLength="94.0254" x="526.7381" y="451.2402">weekStart : TEXT</text><text fill="#000000" font-family="Helvetica" font-size="12" lengthAdjust="spacing" textLength="116.0449" x="526.7381" y="463.2402">contractHours : REAL</text><text fill="#000000" font-family="Helvetica" font-size="12" lengthAdjust="spacing" textLength="128.0684" x="526.7381" y="475.2402">scheduledHours : REAL</text><text fill="#000000" font-family="Helvetica" font-size="12" lengthAdjust="spacing" textLength="105.3809" x="526.7381" y="487.2402">actualHours : REAL</text><text fill="#000000" font-family="Helvetica" font-size="12" lengthAdjust="spacing" textLength="160.7402" x="526.7381" y="499.2402">perfectAttendance : INTEGER</text><text fill="#000000" font-family="Helvetica" font-size="12" lengthAdjust="spacing" textLength="140.0566" x="526.7381" y="511.2402">holidayEligible : INTEGER</text><text fill="#000000" font-family="Helvetica" font-size="12" lengthAdjust="spacing" textLength="111.3867" x="526.7381" y="523.2402">holidayHours : REAL</text><line style="stroke:#181818;stroke-width:1;stroke-dasharray:1.0,2.0;" x1="508.7381" x2="692.4783" y1="530" y2="530"/><text fill="#000000" font-family="Helvetica" font-size="12" lengthAdjust="spacing" textLength="164.0332" x="513.7381" y="543.2402">UNIQUE (workerId, weekStart)</text></g><!--class Payroll--><g class="entity" data-entity="Payroll" data-source-line="104" data-uid="ent0010" id="entity_Payroll"><rect fill="#F1F1F1" height="210" rx="2.5" ry="2.5" style="stroke:#181818;stroke-width:0.5;" width="183.707" x="711.7381" y="358"/><ellipse cx="781.2517" cy="373" fill="#ADD1B2" rx="10" ry="10" style="stroke:#181818;stroke-width:1;"/><path d="M784.1853,377.5 L778.7361,377.5 L778.7361,368.752 L784.1853,368.752 L784.1853,370.2754 L780.4646,370.2754 L780.4646,372.1621 L783.8338,372.1621 L783.8338,373.6855 L780.4646,373.6855 L780.4646,375.9766 L784.1853,375.9766 Z " fill="#000000"/><text fill="#000000" font-family="Helvetica" font-size="12" lengthAdjust="spacing" textLength="36.6797" x="800.2517" y="376.2402">Payroll</text><line style="stroke:#181818;stroke-width:0.5;" x1="712.7381" x2="894.4451" y1="388" y2="388"/><ellipse cx="722.7381" cy="399.5" fill="#000000" rx="3" ry="3" style="stroke:#000000;stroke-width:1;"/><text fill="#000000" font-family="Helvetica" font-size="12" lengthAdjust="spacing" textLength="105.3691" x="730.7381" y="401.2402">id : INTEGER &#171;PK&#187;</text><line style="stroke:#181818;stroke-width:1;" x1="712.7381" x2="894.4451" y1="408" y2="408"/><polygon fill="none" points="722.7381,414.5,726.7381,418.5,722.7381,422.5,718.7381,418.5" style="stroke:#B38D22;stroke-width:1;"/><text fill="#000000" font-family="Helvetica" font-size="12" lengthAdjust="spacing" textLength="141.3691" x="730.7381" y="421.2402">workerId : INTEGER &#171;FK&#187;</text><text fill="#000000" font-family="Helvetica" font-size="12" lengthAdjust="spacing" textLength="97.3652" x="730.7381" y="433.2402">yearMonth : TEXT</text><text fill="#000000" font-family="Helvetica" font-size="12" lengthAdjust="spacing" textLength="99.3809" x="730.7381" y="445.2402">baseHours : REAL</text><text fill="#000000" font-family="Helvetica" font-size="12" lengthAdjust="spacing" textLength="110.0391" x="730.7381" y="457.2402">basePay : INTEGER</text><text fill="#000000" font-family="Helvetica" font-size="12" lengthAdjust="spacing" textLength="122.0449" x="730.7381" y="469.2402">holidayPay : INTEGER</text><text fill="#000000" font-family="Helvetica" font-size="12" lengthAdjust="spacing" textLength="130.6934" x="730.7381" y="481.2402">premiumPay : INTEGER</text><text fill="#000000" font-family="Helvetica" font-size="12" lengthAdjust="spacing" textLength="86.0215" x="730.7381" y="493.2402">total : INTEGER</text><text fill="#000000" font-family="Helvetica" font-size="12" lengthAdjust="spacing" textLength="158.707" x="730.7381" y="505.2402">minWageWarning : INTEGER</text><text fill="#000000" font-family="Helvetica" font-size="12" lengthAdjust="spacing" textLength="134.0273" x="730.7381" y="517.2402">minWageAck : INTEGER</text><text fill="#000000" font-family="Helvetica" font-size="12" lengthAdjust="spacing" textLength="115.3652" x="730.7381" y="529.2402">estimated : INTEGER</text><text fill="#000000" font-family="Helvetica" font-size="12" lengthAdjust="spacing" textLength="72.6855" x="730.7381" y="541.2402">status : TEXT</text><line style="stroke:#181818;stroke-width:1;stroke-dasharray:1.0,2.0;" x1="712.7381" x2="894.4451" y1="548" y2="548"/><text fill="#000000" font-family="Helvetica" font-size="12" lengthAdjust="spacing" textLength="167.373" x="717.7381" y="561.2402">UNIQUE (workerId, yearMonth)</text></g><!--class MinimumWage--><g class="entity" data-entity="MinimumWage" data-source-line="122" data-uid="ent0011" id="entity_MinimumWage"><rect fill="#F1F1F1" height="70" rx="2.5" ry="2.5" style="stroke:#181818;stroke-width:0.5;" width="144.373" x="545.7381" y="24"/><ellipse cx="575.1989" cy="39" fill="#ADD1B2" rx="10" ry="10" style="stroke:#181818;stroke-width:1;"/><path d="M578.1325,43.5 L572.6833,43.5 L572.6833,34.752 L578.1325,34.752 L578.1325,36.2754 L574.4118,36.2754 L574.4118,38.1621 L577.7809,38.1621 L577.7809,39.6855 L574.4118,39.6855 L574.4118,41.9766 L578.1325,41.9766 Z " fill="#000000"/><text fill="#000000" font-family="Helvetica" font-size="12" lengthAdjust="spacing" textLength="80.0156" x="591.6347" y="42.2402">MinimumWage</text><line style="stroke:#181818;stroke-width:0.5;" x1="546.7381" x2="689.1111" y1="54" y2="54"/><ellipse cx="556.7381" cy="65.5" fill="#000000" rx="3" ry="3" style="stroke:#000000;stroke-width:1;"/><text fill="#000000" font-family="Helvetica" font-size="12" lengthAdjust="spacing" textLength="119.373" x="564.7381" y="67.2402">year : INTEGER &#171;PK&#187;</text><line style="stroke:#181818;stroke-width:1;" x1="546.7381" x2="689.1111" y1="74" y2="74"/><text fill="#000000" font-family="Helvetica" font-size="12" lengthAdjust="spacing" textLength="96.0234" x="551.7381" y="87.2402">hourly : INTEGER</text></g><!--class Notification--><g class="entity" data-entity="Notification" data-source-line="128" data-uid="ent0012" id="entity_Notification"><rect fill="#F1F1F1" height="130" rx="2.5" ry="2.5" style="stroke:#181818;stroke-width:0.5;" width="194.4063" x="401.7381" y="990"/><ellipse cx="465.2605" cy="1005" fill="#ADD1B2" rx="10" ry="10" style="stroke:#181818;stroke-width:1;"/><path d="M468.1941,1009.5 L462.7449,1009.5 L462.7449,1000.752 L468.1941,1000.752 L468.1941,1002.2754 L464.4734,1002.2754 L464.4734,1004.1621 L467.8426,1004.1621 L467.8426,1005.6855 L464.4734,1005.6855 L464.4734,1007.9766 L468.1941,1007.9766 Z " fill="#000000"/><text fill="#000000" font-family="Helvetica" font-size="12" lengthAdjust="spacing" textLength="59.3613" x="484.2605" y="1008.2402">Notification</text><line style="stroke:#181818;stroke-width:0.5;" x1="402.7381" x2="595.1443" y1="1020" y2="1020"/><ellipse cx="412.7381" cy="1031.5" fill="#000000" rx="3" ry="3" style="stroke:#000000;stroke-width:1;"/><text fill="#000000" font-family="Helvetica" font-size="12" lengthAdjust="spacing" textLength="105.3691" x="420.7381" y="1033.2402">id : INTEGER &#171;PK&#187;</text><line style="stroke:#181818;stroke-width:1;" x1="402.7381" x2="595.1443" y1="1040" y2="1040"/><polygon fill="none" points="412.7381,1046.5,416.7381,1050.5,412.7381,1054.5,408.7381,1050.5" style="stroke:#B38D22;stroke-width:1;"/><text fill="#000000" font-family="Helvetica" font-size="12" lengthAdjust="spacing" textLength="141.3691" x="420.7381" y="1053.2402">workerId : INTEGER &#171;FK&#187;</text><polygon fill="none" points="412.7381,1058.5,416.7381,1062.5,412.7381,1066.5,408.7381,1062.5" style="stroke:#B38D22;stroke-width:1;"/><text fill="#000000" font-family="Helvetica" font-size="12" lengthAdjust="spacing" textLength="169.4063" x="420.7381" y="1065.2402">subRequestId : INTEGER &#171;FK&#187;</text><text fill="#000000" font-family="Helvetica" font-size="12" lengthAdjust="spacing" textLength="62.6836" x="420.7381" y="1077.2402">kind : TEXT</text><text fill="#000000" font-family="Helvetica" font-size="12" lengthAdjust="spacing" textLength="89.3613" x="420.7381" y="1089.2402">message : TEXT</text><text fill="#000000" font-family="Helvetica" font-size="12" lengthAdjust="spacing" textLength="92.0332" x="420.7381" y="1101.2402">createdAt : TEXT</text><text fill="#000000" font-family="Helvetica" font-size="12" lengthAdjust="spacing" textLength="76.0254" x="420.7381" y="1113.2402">readAt : TEXT</text></g><g class="link" data-entity-1="Workplace" data-entity-2="Worker" data-uid="lnk13" id="link_Workplace_Worker"><line style="stroke:#1C2230;stroke-width:1;" x1="437.7381" x2="445.7381" y1="110.2751" y2="110.2751"/><line style="stroke:#1C2230;stroke-width:1;" x1="437.7381" x2="445.7381" y1="113.2751" y2="113.2751"/><line style="stroke:#1C2230;stroke-width:1;" x1="441.7381" x2="441.7381" y1="114.2751" y2="106.2751"/><line style="stroke:#1C2230;stroke-width:1;" x1="441.7381" x2="447.7381" y1="134.8419" y2="142.8419"/><line style="stroke:#1C2230;stroke-width:1;" x1="441.7381" x2="435.7381" y1="134.8419" y2="142.8419"/><line style="stroke:#1C2230;stroke-width:1;" x1="441.7381" x2="441.7381" y1="134.8419" y2="142.8419"/><ellipse cx="441.7381" cy="128.8419" fill="none" rx="4" ry="4" style="stroke:#1C2230;stroke-width:1;"/><path d="M441.7381,114.2751 C441.7381,125.6498 441.7381,112.2071 441.7381,124.8419" fill="none" style="stroke:#1C2230;stroke-width:1;"/></g><g class="link" data-entity-1="Worker" data-entity-2="FixedSchedule" data-uid="lnk14" id="link_Worker_FixedSchedule"><line style="stroke:#1C2230;stroke-width:1;" x1="393.6372" x2="400.8361" y1="323.0646" y2="326.554"/><line style="stroke:#1C2230;stroke-width:1;" x1="392.3287" x2="399.5276" y1="325.7641" y2="329.2535"/><line style="stroke:#1C2230;stroke-width:1;" x1="395.4919" x2="398.9814" y1="328.4087" y2="321.2098"/><line style="stroke:#1C2230;stroke-width:1;" x1="359.4536" x2="361.3634" y1="402.758" y2="412.574"/><line style="stroke:#1C2230;stroke-width:1;" x1="359.4536" x2="350.565" y1="402.758" y2="407.3399"/><line style="stroke:#1C2230;stroke-width:1;" x1="359.4536" x2="355.9642" y1="402.758" y2="409.9569"/><ellipse cx="362.0707" cy="397.3589" fill="none" rx="4" ry="4" style="stroke:#1C2230;stroke-width:1;"/><path d="M395.4919,328.4087 C380.9567,358.3959 376.5293,367.5299 363.8154,393.7594" fill="none" style="stroke:#1C2230;stroke-width:1;"/></g><g class="link" data-entity-1="Worker" data-entity-2="Shift" data-uid="lnk15" id="link_Worker_Shift"><line style="stroke:#1C2230;stroke-width:1;" x1="345.0151" x2="345.6877" y1="231.3924" y2="239.3641"/><line style="stroke:#1C2230;stroke-width:1;" x1="342.0258" x2="342.6983" y1="231.6446" y2="239.6163"/><line style="stroke:#1C2230;stroke-width:1;" x1="341.3656" x2="349.3372" y1="235.7145" y2="235.0419"/><line style="stroke:#1C2230;stroke-width:1;" x1="89.5554" x2="99.0747" y1="613.1495" y2="616.2127"/><line style="stroke:#1C2230;stroke-width:1;" x1="89.5554" x2="89.2801" y1="613.1495" y2="623.1458"/><line style="stroke:#1C2230;stroke-width:1;" x1="89.5554" x2="94.1774" y1="613.1495" y2="619.6792"/><ellipse cx="86.0888" cy="608.2523" fill="none" rx="4" ry="4" style="stroke:#1C2230;stroke-width:1;"/><path d="M341.3656,235.7145 C252.5877,243.2044 130.7394,269.2029 66.7381,358 C12.1651,433.7159 36.8774,479.5723 66.7381,568 C72.873,586.1677 72.5139,589.0747 83.7778,604.9874" fill="none" style="stroke:#1C2230;stroke-width:1;"/><text fill="#000000" font-family="Helvetica" font-size="12" lengthAdjust="spacing" textLength="46.0137" x="68.7381" y="466.2402">workerId</text></g><g class="link" data-entity-1="Worker" data-entity-2="Shift" data-uid="lnk16" id="link_Worker_Shift"><line style="stroke:#1C2230;stroke-width:1;" x1="338.8163" x2="349.5814" y1="247.4028" y2="245.1417"/><ellipse cx="338.8163" cy="247.4028" fill="none" rx="4" ry="4" style="stroke:#1C2230;stroke-width:1;"/><line style="stroke:#1C2230;stroke-width:1;" x1="344.8447" x2="346.489" y1="242.0493" y2="249.8785"/><line style="stroke:#1C2230;stroke-width:1;" x1="146.7392" x2="153.86" y1="612.0419" y2="619.0629"/><line style="stroke:#1C2230;stroke-width:1;" x1="146.7392" x2="141.9929" y1="612.0419" y2="620.8437"/><line style="stroke:#1C2230;stroke-width:1;" x1="146.7392" x2="147.9264" y1="612.0419" y2="619.9533"/><ellipse cx="145.8488" cy="606.1084" fill="none" rx="4" ry="4" style="stroke:#1C2230;stroke-width:1;"/><path d="M334.9017,248.225 C266.4642,262.5991 192.2593,290.6928 147.7381,358 C120.3334,399.4304 132.5688,517.6132 145.2552,602.1526" fill="none" style="stroke:#1C2230;stroke-width:1;"/><text fill="#000000" font-family="Helvetica" font-size="12" lengthAdjust="spacing" textLength="87.3633" x="149.7381" y="466.2402">originalWorkerId</text></g><g class="link" data-entity-1="FixedSchedule" data-entity-2="Shift" data-uid="lnk17" id="link_FixedSchedule_Shift"><line style="stroke:#1C2230;stroke-width:1;" x1="284.6553" x2="291.2925" y1="524.9047" y2="516.1327"/><ellipse cx="284.6553" cy="524.9047" fill="none" rx="4" ry="4" style="stroke:#1C2230;stroke-width:1;"/><line style="stroke:#1C2230;stroke-width:1;" x1="285.6892" x2="292.0688" y1="516.909" y2="521.7361"/><line style="stroke:#1C2230;stroke-width:1;" x1="217.7424" x2="217.7" y1="613.3393" y2="623.3392"/><line style="stroke:#1C2230;stroke-width:1;" x1="217.7424" x2="208.1306" y1="613.3393" y2="616.0987"/><line style="stroke:#1C2230;stroke-width:1;" x1="217.7424" x2="212.9153" y1="613.3393" y2="619.719"/><ellipse cx="221.3627" cy="608.5546" fill="none" rx="4" ry="4" style="stroke:#1C2230;stroke-width:1;"/><path d="M282.2418,528.0945 C258.9642,558.859 249.1068,571.887 223.7762,605.3648" fill="none" style="stroke:#1C2230;stroke-width:1;"/><text fill="#000000" font-family="Helvetica" font-size="12" lengthAdjust="spacing" textLength="85.3945" x="237.7381" y="597.2402">fixedScheduleId</text></g><g class="link" data-entity-1="Shift" data-entity-2="SubRequest" data-uid="lnk18" id="link_Shift_SubRequest"><line style="stroke:#1C2230;stroke-width:1;" x1="249.8306" x2="254.772" y1="767.8456" y2="761.5542"/><line style="stroke:#1C2230;stroke-width:1;" x1="252.19" x2="257.1313" y1="769.6987" y2="763.4072"/><line style="stroke:#1C2230;stroke-width:1;" x1="255.4471" x2="249.1556" y1="767.1706" y2="762.2292"/><line style="stroke:#1C2230;stroke-width:1;" x1="295.7268" x2="305.7243" y1="798.8066" y2="799.0294"/><line style="stroke:#1C2230;stroke-width:1;" x1="295.7268" x2="298.3123" y1="798.8066" y2="808.4666"/><line style="stroke:#1C2230;stroke-width:1;" x1="295.7268" x2="302.0183" y1="798.8066" y2="803.748"/><ellipse cx="291.0082" cy="795.1006" fill="none" rx="4" ry="4" style="stroke:#1C2230;stroke-width:1;"/><path d="M255.4471,767.1706 C272.7722,780.7779 270.496,778.9901 287.8625,792.6299" fill="none" style="stroke:#1C2230;stroke-width:1;"/></g><g class="link" data-entity-1="Worker" data-entity-2="SubRequest" data-uid="lnk19" id="link_Worker_SubRequest"><line style="stroke:#1C2230;stroke-width:1;" x1="454.362" x2="462.3079" y1="325.6974" y2="324.7687"/><line style="stroke:#1C2230;stroke-width:1;" x1="454.7103" x2="462.6562" y1="328.6771" y2="327.7484"/><line style="stroke:#1C2230;stroke-width:1;" x1="458.7993" x2="457.8706" y1="329.206" y2="321.2601"/><line style="stroke:#1C2230;stroke-width:1;" x1="372.3851" x2="379.6947" y1="790.8306" y2="797.6548"/><line style="stroke:#1C2230;stroke-width:1;" x1="372.3851" x2="367.8806" y1="790.8306" y2="799.7586"/><line style="stroke:#1C2230;stroke-width:1;" x1="372.3851" x2="373.7877" y1="790.8306" y2="798.7067"/><ellipse cx="371.3332" cy="784.9235" fill="none" rx="4" ry="4" style="stroke:#1C2230;stroke-width:1;"/><path d="M458.7993,329.206 C467.162,400.758 466.9152,493.6248 422.7381,568 C414.9911,581.0425 401.1354,572.756 393.7381,586 C357.5274,650.8301 359.6953,719.5713 370.6319,780.9855" fill="none" style="stroke:#1C2230;stroke-width:1;"/><text fill="#000000" font-family="Helvetica" font-size="12" lengthAdjust="spacing" textLength="60.7031" x="395.7381" y="597.2402">requesterId</text></g><g class="link" data-entity-1="Worker" data-entity-2="SubRequest" data-uid="lnk20" id="link_Worker_SubRequest"><line style="stroke:#1C2230;stroke-width:1;" x1="465.9673" x2="464.8918" y1="332.0651" y2="321.1178"/><ellipse cx="465.9673" cy="332.0651" fill="none" rx="4" ry="4" style="stroke:#1C2230;stroke-width:1;"/><line style="stroke:#1C2230;stroke-width:1;" x1="461.302" x2="469.2637" y1="325.4897" y2="324.7075"/><line style="stroke:#1C2230;stroke-width:1;" x1="417.3541" x2="421.01" y1="791.2841" y2="800.5918"/><line style="stroke:#1C2230;stroke-width:1;" x1="417.3541" x2="409.4423" y1="791.2841" y2="797.4"/><line style="stroke:#1C2230;stroke-width:1;" x1="417.3541" x2="415.2262" y1="791.2841" y2="798.9959"/><ellipse cx="418.95" cy="785.5002" fill="none" rx="4" ry="4" style="stroke:#1C2230;stroke-width:1;"/><path d="M466.3584,336.0459 C466.9827,342.4012 465.8325,333.8134 465.7381,340 C463.9601,456.4851 473.0868,486.5168 457.7381,602 C448.7676,669.4937 435.0085,727.3018 420.0139,781.6443" fill="none" style="stroke:#1C2230;stroke-width:1;"/><text fill="#000000" font-family="Helvetica" font-size="12" lengthAdjust="spacing" textLength="56.0332" x="461.7381" y="597.2402">acceptorId</text></g><g class="link" data-entity-1="SubRequest" data-entity-2="SubRequestTarget" data-uid="lnk21" id="link_SubRequest_SubRequestTarget"><line style="stroke:#1C2230;stroke-width:1;" x1="296.6017" x2="301.2741" y1="941.2435" y2="947.7373"/><line style="stroke:#1C2230;stroke-width:1;" x1="294.1665" x2="298.8389" y1="942.9956" y2="949.4894"/><line style="stroke:#1C2230;stroke-width:1;" x1="295.691" x2="302.1848" y1="946.8266" y2="942.1542"/><line style="stroke:#1C2230;stroke-width:1;" x1="225.528" x2="222.5385" y1="997.3097" y2="1006.8524"/><line style="stroke:#1C2230;stroke-width:1;" x1="225.528" x2="215.53" y1="997.3097" y2="997.1117"/><line style="stroke:#1C2230;stroke-width:1;" x1="225.528" x2="219.0342" y1="997.3097" y2="1001.982"/><ellipse cx="230.3984" cy="993.8054" fill="none" rx="4" ry="4" style="stroke:#1C2230;stroke-width:1;"/><path d="M295.691,946.8266 C268.2915,966.5408 259.6834,972.7345 233.6452,991.4692" fill="none" style="stroke:#1C2230;stroke-width:1;"/></g><g class="link" data-entity-1="Worker" data-entity-2="SubRequestTarget" data-uid="lnk22" id="link_Worker_SubRequestTarget"><line style="stroke:#1C2230;stroke-width:1;" x1="345.4237" x2="345.9491" y1="230.1719" y2="238.1546"/><line style="stroke:#1C2230;stroke-width:1;" x1="342.4302" x2="342.9556" y1="230.3689" y2="238.3516"/><line style="stroke:#1C2230;stroke-width:1;" x1="341.695" x2="349.6778" y1="234.426" y2="233.9005"/><line style="stroke:#1C2230;stroke-width:1;" x1="69.6043" x2="79.557" y1="996.5933" y2="997.5648"/><line style="stroke:#1C2230;stroke-width:1;" x1="69.6043" x2="71.4584" y1="996.5933" y2="1006.4199"/><line style="stroke:#1C2230;stroke-width:1;" x1="69.6043" x2="75.5077" y1="996.5933" y2="1001.9924"/><ellipse cx="65.1767" cy="992.544" fill="none" rx="4" ry="4" style="stroke:#1C2230;stroke-width:1;"/><path d="M341.695,234.426 C246.7328,240.6769 109.6764,265.5479 30.7381,358 C-0.0646,394.0759 6.7381,414.563 6.7381,462 C6.7381,462 6.7381,462 6.7381,877 C6.7381,926.5622 27.6399,958.2141 62.225,989.8445" fill="none" style="stroke:#1C2230;stroke-width:1;"/></g><g class="link" data-entity-1="Shift" data-entity-2="Attendance" data-uid="lnk23" id="link_Shift_Attendance"><line style="stroke:#1C2230;stroke-width:1;" x1="155.7381" x2="163.7381" y1="766.2292" y2="766.2292"/><line style="stroke:#1C2230;stroke-width:1;" x1="155.7381" x2="163.7381" y1="769.2292" y2="769.2292"/><line style="stroke:#1C2230;stroke-width:1;" x1="159.7381" x2="159.7381" y1="770.2292" y2="762.2292"/><line style="stroke:#1C2230;stroke-width:1;" x1="159.7381" x2="159.7381" y1="811.8656" y2="822.8656"/><ellipse cx="159.7381" cy="811.8656" fill="none" rx="4" ry="4" style="stroke:#1C2230;stroke-width:1;"/><line style="stroke:#1C2230;stroke-width:1;" x1="163.7381" x2="155.7381" y1="818.8656" y2="818.8656"/><path d="M159.7381,770.2292 C159.7381,790.3882 159.7381,789.0054 159.7381,807.8656" fill="none" style="stroke:#1C2230;stroke-width:1;"/></g><g class="link" data-entity-1="Worker" data-entity-2="WeeklySummary" data-uid="lnk24" id="link_Worker_WeeklySummary"><line style="stroke:#1C2230;stroke-width:1;" x1="501.9798" x2="508.5512" y1="326.7768" y2="322.2142"/><line style="stroke:#1C2230;stroke-width:1;" x1="503.6908" x2="510.2622" y1="329.241" y2="324.6784"/><line style="stroke:#1C2230;stroke-width:1;" x1="507.5468" x2="502.9842" y1="327.7811" y2="321.2098"/><line style="stroke:#1C2230;stroke-width:1;" x1="536.2706" x2="545.7617" y1="369.1506" y2="372.3"/><line style="stroke:#1C2230;stroke-width:1;" x1="536.2706" x2="535.9047" y1="369.1506" y2="379.1439"/><line style="stroke:#1C2230;stroke-width:1;" x1="536.2706" x2="540.8332" y1="369.1506" y2="375.7219"/><ellipse cx="532.8486" cy="364.2221" fill="none" rx="4" ry="4" style="stroke:#1C2230;stroke-width:1;"/><path d="M507.5468,327.7811 C519.9693,345.6727 518.1918,343.1126 530.5673,360.9364" fill="none" style="stroke:#1C2230;stroke-width:1;"/></g><g class="link" data-entity-1="Worker" data-entity-2="Payroll" data-uid="lnk25" id="link_Worker_Payroll"><line style="stroke:#1C2230;stroke-width:1;" x1="536.1361" x2="539.2326" y1="272.9666" y2="265.5902"/><line style="stroke:#1C2230;stroke-width:1;" x1="538.9023" x2="541.9988" y1="274.1278" y2="266.7514"/><line style="stroke:#1C2230;stroke-width:1;" x1="541.3726" x2="533.9962" y1="270.8267" y2="267.7302"/><line style="stroke:#1C2230;stroke-width:1;" x1="705.2878" x2="715.2856" y1="359.7158" y2="359.9284"/><line style="stroke:#1C2230;stroke-width:1;" x1="705.2878" x2="707.8831" y1="359.7158" y2="369.3732"/><line style="stroke:#1C2230;stroke-width:1;" x1="705.2878" x2="711.5844" y1="359.7158" y2="364.6508"/><ellipse cx="700.5655" cy="356.0146" fill="none" rx="4" ry="4" style="stroke:#1C2230;stroke-width:1;"/><path d="M541.3726,270.8267 C593.4143,292.6727 650.8297,320.6798 702.7381,358 C705.7012,360.1304 694.4855,351.2494 697.4172,353.5471" fill="none" style="stroke:#1C2230;stroke-width:1;"/></g><g class="link" data-entity-1="Worker" data-entity-2="Notification" data-uid="lnk26" id="link_Worker_Notification"><line style="stroke:#1C2230;stroke-width:1;" x1="537.147" x2="538.3947" y1="250.6503" y2="242.7482"/><line style="stroke:#1C2230;stroke-width:1;" x1="540.1103" x2="541.358" y1="251.1182" y2="243.2161"/><line style="stroke:#1C2230;stroke-width:1;" x1="541.7219" x2="533.8198" y1="247.3231" y2="246.0754"/><line style="stroke:#1C2230;stroke-width:1;" x1="603.7719" x2="597.3192" y1="1032.0694" y2="1039.7089"/><line style="stroke:#1C2230;stroke-width:1;" x1="603.7719" x2="594.6312" y1="1032.0694" y2="1028.0138"/><line style="stroke:#1C2230;stroke-width:1;" x1="603.7719" x2="595.9752" y1="1032.0694" y2="1033.8613"/><ellipse cx="609.6194" cy="1030.7254" fill="none" rx="4" ry="4" style="stroke:#1C2230;stroke-width:1;"/><path d="M541.7219,247.3231 C661.937,266.3042 855.0174,303.9717 904.7381,358 C936.5562,392.5747 923.7381,415.0127 923.7381,462 C923.7381,462 923.7381,462 923.7381,877 C923.7381,947.5863 738.9726,1000.9952 613.5178,1029.8294" fill="none" style="stroke:#1C2230;stroke-width:1;"/></g><g class="link" data-entity-1="SubRequest" data-entity-2="Notification" data-uid="lnk27" id="link_SubRequest_Notification"><line style="stroke:#1C2230;stroke-width:1;" x1="443.9584" x2="438.3068" y1="962.5283" y2="953.0911"/><ellipse cx="443.9584" cy="962.5283" fill="none" rx="4" ry="4" style="stroke:#1C2230;stroke-width:1;"/><line style="stroke:#1C2230;stroke-width:1;" x1="436.9302" x2="443.7936" y1="958.578" y2="954.4677"/><line style="stroke:#1C2230;stroke-width:1;" x1="456.2517" x2="465.5095" y1="983.0557" y2="986.8364"/><line style="stroke:#1C2230;stroke-width:1;" x1="456.2517" x2="455.2144" y1="983.0557" y2="993.0018"/><line style="stroke:#1C2230;stroke-width:1;" x1="456.2517" x2="460.3619" y1="983.0557" y2="989.9191"/><ellipse cx="453.169" cy="977.9082" fill="none" rx="4" ry="4" style="stroke:#1C2230;stroke-width:1;"/><path d="M446.0135,965.96 C453.3643,978.2343 443.9547,962.5222 451.1138,974.4765" fill="none" style="stroke:#1C2230;stroke-width:1;"/></g><!--SRC=[hLPDKzim4BtdLwZXqdQ0AVJ6CCoaD2bCAQKaJ7hTs9j44rbo9Hdg0l-zyaVYbR09Kvg39tgxaju-QNVr9jMmI809o5LccKdGWeIUMN6PWeQ4nJY7JDYHalOI4cJzCnItQ7a4_NQlCV-3xE2G6CqIOdN7vOBDGHWabXb4guLMcOnFbL2QxOpA7_4GNABDKsHAswKY1fIMsvpTznZxrB6AioWTewxHWzF3muyV75gmzB57il10QtNdctlrPlsfqgjKG8Hz1ePjHYMBzup7x8YTNqw6NuRNxFZuwkl9YSFtzjn75j8TiSdmvyIDD2uo0NgOf4BbYAQPvemccmsiHHc3ZF1A2HxbwvcFFXFK6ngejtFOONThmkU-rwZoqaeGaZxbTAaa6IvLfaK-XGLwt2Edh8R8ZYrestYluQ6CoOfQpS1o9JtKS2SANi3CoKzNThFvBTsCQ37Ylp4UHqkCCr6TZ8UyL1dKxRBS8QvYoFr3AWASSAgGEp4A47xZ9P_RabVvRpkVWirdi6JnxVjjYsB7PH1VS0bY-gpNd4hNxkJ8sCoq1PhDhl5NXgQETZDyoH6OGfikLhfQfvisH16cLdNODO9Hif4gHeYBok89J69oLzPDiHWFB9qKyPX2hP5FG2ymZBy2NwJ2PavNfCyTiaQJAccyKbCWNRIRGbCIReR_Vc2xxERo_CVDiFICX8fMvqJu4lYU-RLXpdM2SNjkJrtoYNoS9Gdel2ft5FaVkTrHhCvSYIiknFLmS55Sa3ebuW1tdXc804nHpp6oH4zQF9QkgBk2CXGk7sUYrHQijx_lFfMkxEqwdjs6_JigsHNahfABKgpw_sjboX7qDwVBif5f1WO3bWLq5HJAEfuGJZKcF4j2s2eBmaCIBeikCmKjYmT4YsaGhJpOfGvFYjmD2xQNtnsARWBr5Ft69K-ofDYjL9MCQsMBUPtQLiso_NvVAildxZ5LDC9oRGgyzjYsbnFtwY7DDq5ZgfRUNGKTujUIvXNqyB2tf-xhzqYlVfRKeDUH0rlL5OyseMpCoZE7_QldT_d0E-XZlGfVxxYH9QJIjAmZsdH2IjIjQJqzWZzPiEe1dVlLPaBpWTJZO9fN0mDRdV81Ig-LHrCzCVy5]--></g></svg>