<svg xmlns="http://www.w3.org/2000/svg" xmlns:xlink="http://www.w3.org/1999/xlink" contentStyleType="text/css" data-diagram-type="SEQUENCE" height="1013px" preserveAspectRatio="none" style="width:998px;height:1013px;background:#FFFFFF;" version="1.1" viewBox="0 0 998 1013" width="998px" zoomAndPan="magnify"><title>UC-06 Approve or reject substitution &#8212; decision (FR-12, BR-04; includes UC-08)</title><defs/><g><text fill="#000000" font-family="Helvetica" font-size="14" font-weight="bold" lengthAdjust="spacing" textLength="532.8613" x="233.6709" y="25.7803">UC-06 Approve or reject substitution &#8212; decision (FR-12, BR-04; includes UC-08)</text><g><title>&lt;u&gt;SubstituteService</title><rect fill="#FFFFFF" height="553" style="stroke:#1C2230;stroke-width:1;" width="10" x="566.7891" y="166"/></g><g><title>&lt;u&gt;SubstituteService</title><rect fill="#FFFFFF" height="169" style="stroke:#1C2230;stroke-width:1;" width="10" x="571.7891" y="427"/></g><g><title>&lt;u&gt;db.js</title><rect fill="#FFFFFF" height="460" style="stroke:#1C2230;stroke-width:1;" width="10" x="948.2031" y="192"/></g><rect fill="none" height="479" style="stroke:#000000;stroke-width:1.5;" width="981.2031" x="10" y="233"/><rect fill="none" height="142" style="stroke:#000000;stroke-width:1.5;" width="469.1045" x="512.0986" y="447"/><rect fill="none" height="194" style="stroke:#000000;stroke-width:1.5;" width="971.2031" x="10" y="726"/><g><title>&lt;u&gt;A2 Owner</title><rect fill="#000000" fill-opacity="0.00000" height="825" width="8" x="45.6777" y="112"/><line style="stroke:#1C2230;stroke-width:0.5;stroke-dasharray:5.0,5.0;" x1="49" x2="49" y1="112" y2="937"/></g><g><title>&lt;u&gt;approvals.js</title><rect fill="#000000" fill-opacity="0.00000" height="825" width="8" x="327.7715" y="112"/><line style="stroke:#1C2230;stroke-width:0.5;stroke-dasharray:5.0,5.0;" x1="331.7559" x2="331.7559" y1="112" y2="937"/></g><g><title>&lt;u&gt;SubstituteService</title><rect fill="#000000" fill-opacity="0.00000" height="825" width="8" x="567.7891" y="112"/><line style="stroke:#1C2230;stroke-width:0.5;stroke-dasharray:5.0,5.0;" x1="571.0986" x2="571.0986" y1="112" y2="937"/></g><g><title>&lt;u&gt;LaborRules</title><rect fill="#000000" fill-opacity="0.00000" height="825" width="8" x="877.209" y="112"/><line style="stroke:#1C2230;stroke-width:0.5;stroke-dasharray:5.0,5.0;" x1="880.5234" x2="880.5234" y1="112" y2="937"/></g><g><title>&lt;u&gt;db.js</title><rect fill="#000000" fill-opacity="0.00000" height="825" width="8" x="949.2031" y="112"/><line style="stroke:#1C2230;stroke-width:0.5;stroke-dasharray:5.0,5.0;" x1="953.2031" x2="953.2031" y1="112" y2="937"/></g><g class="participant participant-head" data-participant="Owner"><text fill="#000000" font-family="Helvetica" font-size="12" lengthAdjust="spacing" text-decoration="underline" textLength="53.3555" x="20" y="109.2402">A2 Owner</text><ellipse cx="49.6777" cy="48.5" fill="#E2E2F0" rx="8" ry="8" style="stroke:#181818;stroke-width:0.5;"/><path d="M49.6777,56.5 L49.6777,83.5 M36.6777,64.5 L62.6777,64.5 M49.6777,83.5 L36.6777,98.5 M49.6777,83.5 L62.6777,98.5" fill="none" style="stroke:#181818;stroke-width:0.5;"/></g><g class="participant participant-tail" data-participant="Owner"><text fill="#000000" font-family="Helvetica" font-size="12" lengthAdjust="spacing" text-decoration="underline" textLength="53.3555" x="20" y="945.2402">A2 Owner</text><ellipse cx="49.6777" cy="956.5" fill="#E2E2F0" rx="8" ry="8" style="stroke:#181818;stroke-width:0.5;"/><path d="M49.6777,964.5 L49.6777,991.5 M36.6777,972.5 L62.6777,972.5 M49.6777,991.5 L36.6777,1006.5 M49.6777,991.5 L62.6777,1006.5" fill="none" style="stroke:#181818;stroke-width:0.5;"/></g><g class="participant participant-head" data-participant="UI"><text fill="#000000" font-family="Helvetica" font-size="12" lengthAdjust="spacing" text-decoration="underline" textLength="64.0313" x="296.7559" y="109.2402">approvals.js</text><path d="M311.2715,72 L311.2715,96 M311.2715,84 L328.2715,84" fill="none" style="stroke:#181818;stroke-width:0.5;"/><ellipse cx="340.2715" cy="84" fill="#E2E2F0" rx="12" ry="12" style="stroke:#181818;stroke-width:0.5;"/></g><g class="participant participant-tail" data-participant="UI"><text fill="#000000" font-family="Helvetica" font-size="12" lengthAdjust="spacing" text-decoration="underline" textLength="64.0313" x="296.7559" y="945.2402">approvals.js</text><path d="M311.2715,952 L311.2715,976 M311.2715,964 L328.2715,964" fill="none" style="stroke:#181818;stroke-width:0.5;"/><ellipse cx="340.2715" cy="964" fill="#E2E2F0" rx="12" ry="12" style="stroke:#181818;stroke-width:0.5;"/></g><g class="participant participant-head" data-participant="Svc"><text fill="#000000" font-family="Helvetica" font-size="12" lengthAdjust="spacing" text-decoration="underline" textLength="93.3809" x="522.0986" y="109.2402">SubstituteService</text><ellipse cx="571.7891" cy="84" fill="#E2E2F0" rx="12" ry="12" style="stroke:#181818;stroke-width:0.5;"/><polygon fill="#181818" points="567.7891,72,573.7891,67,571.7891,72,573.7891,77,567.7891,72" style="stroke:#181818;stroke-width:1;"/></g><g class="participant participant-tail" data-participant="Svc"><text fill="#000000" font-family="Helvetica" font-size="12" lengthAdjust="spacing" text-decoration="underline" textLength="93.3809" x="522.0986" y="945.2402">SubstituteService</text><ellipse cx="571.7891" cy="964" fill="#E2E2F0" rx="12" ry="12" style="stroke:#181818;stroke-width:0.5;"/><polygon fill="#181818" points="567.7891,952,573.7891,947,571.7891,952,573.7891,957,567.7891,952" style="stroke:#181818;stroke-width:1;"/></g><g class="participant participant-head" data-participant="Rules"><text fill="#000000" font-family="Helvetica" font-size="12" lengthAdjust="spacing" text-decoration="underline" textLength="61.3711" x="847.5234" y="109.2402">LaborRules</text><ellipse cx="881.209" cy="84" fill="#E2E2F0" rx="12" ry="12" style="stroke:#181818;stroke-width:0.5;"/><polygon fill="#181818" points="877.209,72,883.209,67,881.209,72,883.209,77,877.209,72" style="stroke:#181818;stroke-width:1;"/></g><g class="participant participant-tail" data-participant="Rules"><text fill="#000000" font-family="Helvetica" font-size="12" lengthAdjust="spacing" text-decoration="underline" textLength="61.3711" x="847.5234" y="945.2402">LaborRules</text><ellipse cx="881.209" cy="964" fill="#E2E2F0" rx="12" ry="12" style="stroke:#181818;stroke-width:0.5;"/><polygon fill="#181818" points="877.209,952,883.209,947,881.209,952,883.209,957,877.209,952" style="stroke:#181818;stroke-width:1;"/></g><g class="participant participant-head" data-participant="DB"><text fill="#000000" font-family="Helvetica" font-size="12" lengthAdjust="spacing" text-decoration="underline" textLength="25.3477" x="937.5293" y="109.2402">db.js</text><path d="M935.2031,64 C935.2031,54 953.2031,54 953.2031,54 C953.2031,54 971.2031,54 971.2031,64 L971.2031,90 C971.2031,100 953.2031,100 953.2031,100 C953.2031,100 935.2031,100 935.2031,90 L935.2031,64" fill="#E2E2F0" style="stroke:#181818;stroke-width:1.5;"/><path d="M935.2031,64 C935.2031,74 953.2031,74 953.2031,74 C953.2031,74 971.2031,74 971.2031,64" fill="none" style="stroke:#181818;stroke-width:1.5;"/></g><g class="participant participant-tail" data-participant="DB"><text fill="#000000" font-family="Helvetica" font-size="12" lengthAdjust="spacing" text-decoration="underline" textLength="25.3477" x="937.5293" y="945.2402">db.js</text><path d="M935.2031,958 C935.2031,948 953.2031,948 953.2031,948 C953.2031,948 971.2031,948 971.2031,958 L971.2031,984 C971.2031,994 953.2031,994 953.2031,994 C953.2031,994 935.2031,994 935.2031,984 L935.2031,958" fill="#E2E2F0" style="stroke:#181818;stroke-width:1.5;"/><path d="M935.2031,958 C935.2031,968 953.2031,968 953.2031,968 C953.2031,968 971.2031,968 971.2031,958" fill="none" style="stroke:#181818;stroke-width:1.5;"/></g><g><title>&lt;u&gt;SubstituteService</title><rect fill="#FFFFFF" height="553" style="stroke:#1C2230;stroke-width:1;" width="10" x="566.7891" y="166"/></g><g><title>&lt;u&gt;SubstituteService</title><rect fill="#FFFFFF" height="169" style="stroke:#1C2230;stroke-width:1;" width="10" x="571.7891" y="427"/></g><g><title>&lt;u&gt;db.js</title><rect fill="#FFFFFF" height="460" style="stroke:#1C2230;stroke-width:1;" width="10" x="948.2031" y="192"/></g><g class="message" data-participant-1="Owner" data-participant-2="UI"><polygon fill="#1C2230" points="319.7715,136,329.7715,140,319.7715,144,323.7715,140" style="stroke:#1C2230;stroke-width:1;"/><line style="stroke:#1C2230;stroke-width:1;" x1="49.6777" x2="325.7715" y1="140" y2="140"/><text fill="#000000" font-family="Helvetica" font-size="12" lengthAdjust="spacing" textLength="44.6953" x="56.6777" y="135.2402">Approve</text></g><g class="message" data-participant-1="UI" data-participant-2="Svc"><polygon fill="#1C2230" points="554.7891,162,564.7891,166,554.7891,170,558.7891,166" style="stroke:#1C2230;stroke-width:1;"/><line style="stroke:#1C2230;stroke-width:1;" x1="331.7715" x2="560.7891" y1="166" y2="166"/><text fill="#000000" font-family="Helvetica" font-size="12" lengthAdjust="spacing" textLength="216.0176" x="338.7715" y="161.2402">decideRequest(requestId, 'APPROVED')</text></g><g class="message" data-participant-1="Svc" data-participant-2="DB"><polygon fill="#1C2230" points="936.2031,188,946.2031,192,936.2031,196,940.2031,192" style="stroke:#1C2230;stroke-width:1;"/><line style="stroke:#1C2230;stroke-width:1;" x1="576.7891" x2="942.2031" y1="192" y2="192"/><text fill="#000000" font-family="Helvetica" font-size="12" lengthAdjust="spacing" textLength="60.0293" x="583.7891" y="187.2402">tx(fn) begin</text></g><g class="message" data-participant-1="Svc" data-participant-2="DB"><polygon fill="#1C2230" points="936.2031,214,946.2031,218,936.2031,222,940.2031,218" style="stroke:#1C2230;stroke-width:1;"/><line style="stroke:#1C2230;stroke-width:1;" x1="576.7891" x2="942.2031" y1="218" y2="218"/><text fill="#000000" font-family="Helvetica" font-size="12" lengthAdjust="spacing" textLength="216.4453" x="583.7891" y="213.2402">get SubRequest+Shift (requestWithShift)</text></g><path d="M10,233 L69.0039,233 L69.0039,237 L59.0039,247 L10,247 L10,233" fill="#EEEEEE" style="stroke:#000000;stroke-width:1.5;"/><rect fill="none" height="479" style="stroke:#000000;stroke-width:1.5;" width="981.2031" x="10" y="233"/><text fill="#000000" font-family="Helvetica" font-size="12" font-weight="bold" lengthAdjust="spacing" textLength="14.0039" x="25" y="243.2402">alt</text><text fill="#000000" font-family="Helvetica" font-size="12" font-weight="bold" lengthAdjust="spacing" textLength="193.7344" x="84.0039" y="244.2402">[r.status !== 'ACCEPTED' (BR-04)]</text><g class="message" data-participant-1="Svc" data-participant-2="DB"><polygon fill="#1C2230" points="936.2031,261,946.2031,265,936.2031,269,940.2031,265" style="stroke:#1C2230;stroke-width:1;"/><line style="stroke:#1C2230;stroke-width:1;" x1="576.7891" x2="942.2031" y1="265" y2="265"/><text fill="#000000" font-family="Helvetica" font-size="12" lengthAdjust="spacing" textLength="261.9551" x="583.7891" y="260.2402">rollback (throw ServiceError('NOT_ACCEPTED'))</text></g><g class="message" data-participant-1="Svc" data-participant-2="UI"><polygon fill="#1C2230" points="342.7715,299,332.7715,303,342.7715,307,338.7715,303" style="stroke:#1C2230;stroke-width:1;"/><line style="stroke:#1C2230;stroke-width:1;stroke-dasharray:2.0,2.0;" x1="336.7715" x2="565.7891" y1="303" y2="303"/><text fill="#000000" font-family="Helvetica" font-size="12" lengthAdjust="spacing" textLength="167.0215" x="348.7715" y="286.2402">error "only an accepted request</text><text fill="#000000" font-family="Helvetica" font-size="12" lengthAdjust="spacing" textLength="153.6914" x="348.7715" y="298.2402">can be approved or rejected"</text></g><line style="stroke:#000000;stroke-width:1;stroke-dasharray:2.0,2.0;" x1="10" x2="991.2031" y1="312" y2="312"/><text fill="#000000" font-family="Helvetica" font-size="12" font-weight="bold" lengthAdjust="spacing" textLength="150.7441" x="15" y="321.2402">[r.status === 'ACCEPTED']</text><g class="message" data-participant-1="Svc" data-participant-2="DB"><polygon fill="#1C2230" points="936.2031,351,946.2031,355,936.2031,359,940.2031,355" style="stroke:#1C2230;stroke-width:1;"/><line style="stroke:#1C2230;stroke-width:1;" x1="576.7891" x2="942.2031" y1="355" y2="355"/><text fill="#000000" font-family="Helvetica" font-size="12" lengthAdjust="spacing" textLength="215.0742" x="583.7891" y="338.2402">UPDATE Shift SET workerId = acceptor,</text><text fill="#000000" font-family="Helvetica" font-size="12" lengthAdjust="spacing" textLength="339.0996" x="583.7891" y="350.2402">originalWorkerId = COALESCE(originalWorkerId, shiftWorkerId)</text></g><g class="message" data-participant-1="Svc" data-participant-2="DB"><polygon fill="#1C2230" points="936.2031,377,946.2031,381,936.2031,385,940.2031,381" style="stroke:#1C2230;stroke-width:1;"/><line style="stroke:#1C2230;stroke-width:1;" x1="576.7891" x2="942.2031" y1="381" y2="381"/><text fill="#000000" font-family="Helvetica" font-size="12" lengthAdjust="spacing" textLength="347.4141" x="583.7891" y="376.2402">UPDATE SubRequest SET status='APPROVED', decidedAt=now</text></g><g class="message" data-participant-1="Svc" data-participant-2="Svc"><line style="stroke:#1C2230;stroke-width:1;" x1="576.7891" x2="623.7891" y1="414" y2="414"/><line style="stroke:#1C2230;stroke-width:1;" x1="623.7891" x2="623.7891" y1="414" y2="427"/><line style="stroke:#1C2230;stroke-width:1;" x1="582.7891" x2="623.7891" y1="427" y2="427"/><polygon fill="#1C2230" points="592.7891,423,582.7891,427,592.7891,431,588.7891,427" style="stroke:#1C2230;stroke-width:1;"/><text fill="#000000" font-family="Helvetica" font-size="12" lengthAdjust="spacing" textLength="219.3984" x="588.7891" y="397.2402">recomputeWeek(weekStartOf(workDate),</text><text fill="#000000" font-family="Helvetica" font-size="12" lengthAdjust="spacing" textLength="272.1152" x="588.7891" y="409.2402">[requesterId, acceptorId]) &#8212; same module, self-call</text></g><path d="M512.0986,447 L582.4229,447 L582.4229,451 L572.4229,461 L512.0986,461 L512.0986,447" fill="#EEEEEE" style="stroke:#000000;stroke-width:1.5;"/><rect fill="none" height="142" style="stroke:#000000;stroke-width:1.5;" width="469.1045" x="512.0986" y="447"/><text fill="#000000" font-family="Helvetica" font-size="12" font-weight="bold" lengthAdjust="spacing" textLength="25.3242" x="527.0986" y="457.2402">loop</text><text fill="#000000" font-family="Helvetica" font-size="12" font-weight="bold" lengthAdjust="spacing" textLength="235.3711" x="597.4229" y="458.2402">[for workerId in [requesterId, acceptorId]]</text><g class="message" data-participant-1="Svc" data-participant-2="DB"><polygon fill="#1C2230" points="936.2031,487,946.2031,491,936.2031,495,940.2031,491" style="stroke:#1C2230;stroke-width:1;"/><line style="stroke:#1C2230;stroke-width:1;" x1="581.7891" x2="942.2031" y1="491" y2="491"/><text fill="#000000" font-family="Helvetica" font-size="12" lengthAdjust="spacing" textLength="193.3887" x="588.7891" y="474.2402">weekShiftsFor(workerId, weekStart),</text><text fill="#000000" font-family="Helvetica" font-size="12" lengthAdjust="spacing" textLength="99.3984" x="588.7891" y="486.2402">get FixedSchedule</text></g><g class="message" data-participant-1="Svc" data-participant-2="Rules"><polygon fill="#1C2230" points="869.209,525,879.209,529,869.209,533,873.209,529" style="stroke:#1C2230;stroke-width:1;"/><line style="stroke:#1C2230;stroke-width:1;" x1="581.7891" x2="875.209" y1="529" y2="529"/><text fill="#000000" font-family="Helvetica" font-size="12" lengthAdjust="spacing" textLength="275.4199" x="588.7891" y="512.2402">computeWeeklySummary({workerId, contractHours,</text><text fill="#000000" font-family="Helvetica" font-size="12" lengthAdjust="spacing" textLength="109.2246" x="588.7891" y="524.2402">shifts, policy}) "after"</text></g><g class="message" data-participant-1="Rules" data-participant-2="Svc"><polygon fill="#1C2230" points="592.7891,551,582.7891,555,592.7891,559,588.7891,555" style="stroke:#1C2230;stroke-width:1;"/><line style="stroke:#1C2230;stroke-width:1;stroke-dasharray:2.0,2.0;" x1="586.7891" x2="880.209" y1="555" y2="555"/><text fill="#000000" font-family="Helvetica" font-size="12" lengthAdjust="spacing" textLength="76.6816" x="598.7891" y="550.2402">after summary</text></g><g class="message" data-participant-1="Svc" data-participant-2="DB"><polygon fill="#1C2230" points="936.2031,577,946.2031,581,936.2031,585,940.2031,581" style="stroke:#1C2230;stroke-width:1;"/><line style="stroke:#1C2230;stroke-width:1;" x1="581.7891" x2="942.2031" y1="581" y2="581"/><text fill="#000000" font-family="Helvetica" font-size="12" lengthAdjust="spacing" textLength="241.3945" x="588.7891" y="576.2402">upsert WeeklySummary(workerId, weekStart)</text></g><g class="message" data-participant-1="Svc" data-participant-2="DB"><polygon fill="#1C2230" points="936.2031,622,946.2031,626,936.2031,630,940.2031,626" style="stroke:#1C2230;stroke-width:1;"/><line style="stroke:#1C2230;stroke-width:1;" x1="576.7891" x2="942.2031" y1="626" y2="626"/><text fill="#000000" font-family="Helvetica" font-size="12" lengthAdjust="spacing" textLength="231.3984" x="583.7891" y="609.2402">insert Notification(REQUEST_APPROVED)</text><text fill="#000000" font-family="Helvetica" font-size="12" lengthAdjust="spacing" textLength="116.7305" x="583.7891" y="621.2402">to requester, acceptor</text></g><g class="message" data-participant-1="Svc" data-participant-2="DB"><polygon fill="#1C2230" points="941.2031,648,951.2031,652,941.2031,656,945.2031,652" style="stroke:#1C2230;stroke-width:1;"/><line style="stroke:#1C2230;stroke-width:1;" x1="576.7891" x2="947.2031" y1="652" y2="652"/><text fill="#000000" font-family="Helvetica" font-size="12" lengthAdjust="spacing" textLength="87.6855" x="583.7891" y="647.2402">commit + persist</text></g><g class="message" data-participant-1="Svc" data-participant-2="UI"><polygon fill="#1C2230" points="342.7715,674,332.7715,678,342.7715,682,338.7715,678" style="stroke:#1C2230;stroke-width:1;"/><line style="stroke:#1C2230;stroke-width:1;stroke-dasharray:2.0,2.0;" x1="336.7715" x2="565.7891" y1="678" y2="678"/><text fill="#000000" font-family="Helvetica" font-size="12" lengthAdjust="spacing" textLength="117.9668" x="348.7715" y="673.2402">{status: 'APPROVED'}</text></g><g class="message" data-participant-1="UI" data-participant-2="Owner"><polygon fill="#1C2230" points="60.6777,700,50.6777,704,60.6777,708,56.6777,704" style="stroke:#1C2230;stroke-width:1;"/><line style="stroke:#1C2230;stroke-width:1;stroke-dasharray:2.0,2.0;" x1="54.6777" x2="330.7715" y1="704" y2="704"/><text fill="#000000" font-family="Helvetica" font-size="12" lengthAdjust="spacing" textLength="258.0938" x="66.6777" y="699.2402">show updated shift &amp; weekly summaries (FR-11)</text></g><path d="M10,726 L69.0039,726 L69.0039,730 L59.0039,740 L10,740 L10,726" fill="#EEEEEE" style="stroke:#000000;stroke-width:1.5;"/><rect fill="none" height="194" style="stroke:#000000;stroke-width:1.5;" width="971.2031" x="10" y="726"/><text fill="#000000" font-family="Helvetica" font-size="12" font-weight="bold" lengthAdjust="spacing" textLength="14.0039" x="25" y="736.2402">alt</text><text fill="#000000" font-family="Helvetica" font-size="12" font-weight="bold" lengthAdjust="spacing" textLength="132.709" x="84.0039" y="737.2402">[Owner rejects instead]</text><g class="message" data-participant-1="Owner" data-participant-2="UI"><polygon fill="#1C2230" points="319.7715,754,329.7715,758,319.7715,762,323.7715,758" style="stroke:#1C2230;stroke-width:1;"/><line style="stroke:#1C2230;stroke-width:1;" x1="49.6777" x2="325.7715" y1="758" y2="758"/><text fill="#000000" font-family="Helvetica" font-size="12" lengthAdjust="spacing" textLength="34.0137" x="56.6777" y="753.2402">Reject</text></g><g class="message" data-participant-1="UI" data-participant-2="Svc"><polygon fill="#1C2230" points="559.7891,780,569.7891,784,559.7891,788,563.7891,784" style="stroke:#1C2230;stroke-width:1;"/><line style="stroke:#1C2230;stroke-width:1;" x1="331.7715" x2="565.7891" y1="784" y2="784"/><text fill="#000000" font-family="Helvetica" font-size="12" lengthAdjust="spacing" textLength="212.6719" x="338.7715" y="779.2402">decideRequest(requestId, 'REJECTED')</text></g><g class="message" data-participant-1="Svc" data-participant-2="DB"><polygon fill="#1C2230" points="941.2031,818,951.2031,822,941.2031,826,945.2031,822" style="stroke:#1C2230;stroke-width:1;"/><line style="stroke:#1C2230;stroke-width:1;" x1="571.7891" x2="947.2031" y1="822" y2="822"/><text fill="#000000" font-family="Helvetica" font-size="12" lengthAdjust="spacing" textLength="274.3418" x="578.7891" y="805.2402">tx: UPDATE SubRequest SET status='REJECTED',</text><text fill="#000000" font-family="Helvetica" font-size="12" lengthAdjust="spacing" textLength="221.1387" x="578.7891" y="817.2402">decidedAt=now (Shift unchanged, BR-04)</text></g><g class="message" data-participant-1="Svc" data-participant-2="DB"><polygon fill="#1C2230" points="941.2031,856,951.2031,860,941.2031,864,945.2031,860" style="stroke:#1C2230;stroke-width:1;"/><line style="stroke:#1C2230;stroke-width:1;" x1="571.7891" x2="947.2031" y1="860" y2="860"/><text fill="#000000" font-family="Helvetica" font-size="12" lengthAdjust="spacing" textLength="228.0527" x="578.7891" y="843.2402">insert Notification(REQUEST_REJECTED)</text><text fill="#000000" font-family="Helvetica" font-size="12" lengthAdjust="spacing" textLength="116.7305" x="578.7891" y="855.2402">to requester, acceptor</text></g><g class="message" data-participant-1="Svc" data-participant-2="UI"><polygon fill="#1C2230" points="342.7715,882,332.7715,886,342.7715,890,338.7715,886" style="stroke:#1C2230;stroke-width:1;"/><line style="stroke:#1C2230;stroke-width:1;stroke-dasharray:2.0,2.0;" x1="336.7715" x2="570.7891" y1="886" y2="886"/><text fill="#000000" font-family="Helvetica" font-size="12" lengthAdjust="spacing" textLength="114.6211" x="348.7715" y="881.2402">{status: 'REJECTED'}</text></g><g class="message" data-participant-1="UI" data-participant-2="Owner"><polygon fill="#1C2230" points="60.6777,908,50.6777,912,60.6777,916,56.6777,912" style="stroke:#1C2230;stroke-width:1;"/><line style="stroke:#1C2230;stroke-width:1;stroke-dasharray:2.0,2.0;" x1="54.6777" x2="330.7715" y1="912" y2="912"/><text fill="#000000" font-family="Helvetica" font-size="12" lengthAdjust="spacing" textLength="84.7324" x="66.6777" y="907.2402">shift unchanged</text></g><!--SRC=[bLNTRkf64BxtKqofrDWwS1HeLLMfgCIFqKaL1Of9Sz5KrMAFmnxChhkxXgHHf3v4dx1FqjcrCOP359KBmBipttpppO_rcekSARQ115DMP6OYXRbb6uJM9yosQ7ZCMfu-PnNnln2wlSQbNh54xhXuX9Hb6XitInQl7vKiH3AIcLJmzSHzchxuPu4Yne5IShTOyNWjK6ledZ6PCKMqUCw40K94bN7H39OtxbyyWE4RmUb6AdAlJhkZNk_RI-_rJ4G7SyDJlA58vvm07E_Jmw5yEX_2Czna27UZpkNtCCXp9RS8PA7mCyO6TB7KP54OBWNy-_S_97lCjNtm9_DEjzU6uRnp-TsFm4MS5GbgX_H3u7aiDWJJ6lHWkXEeMi1q-SzRMW6OUeOMS_6eGXy_QsTmT-t5L50bCsX5-z0OeTho69r5j8qF9ZTiATMyoB3qTl-yX1csP9hw9bdkSST3ptF1eVCJ1O6hVQeUFT0HeTAPpIt1kPLQ6r-LlzT96ou6izby-ciulWXiNdpB33ecre_SnqFoDaz-AW9OuYCN1okAt3HwH0EKM1NZGxJYgO5zg7jkLkx4ofSPK1-rOQRGy5M_Jnn6et2s80xWEyq3AciJcXJ9R7U3RrRK0L2f5b8xAF_YThhueqO8Qj-z76Yje2L5zWnC08jZp0qcK35x436TBX7AYj55tIAOj3oa6JkmxH-nFM5vDniF5Y6KYKVX0dPIhL5T9z2leahLVX1ISPAHPVU7sz5qS1D6ez0_lMlJk1FQ_Z5u8sAjkWjRSkqVAjkkofyCJ5_8dNT0APj3OImtENNZFUBQtz5NP6YyfwblCnXJhGFY_LibMCbhdz1rydlWfaVRVRQH2JKgiSOixSGiooZKKLS1P5Bca9B6jJfSm9lOv72SicDdDT4JglskrgbcRQdQLfpm9qoYU8MMKHF6ZH8XDNBEdgDYiw6vzLyEY6uKYVmdMIXDeAuIkWsvp7Zy_1hGZAT4kEMmIz1EBQcxeXNZKBz8eiWrAWF7eS_bGfue4lfEy4Z6apxWmk7TIiDJUfVOZURFmr_kmeWce-g2u44O2RNE1vLFi4YM3JVm0N9Kccjp79nc_cIyNifsksfiabUoiSk7JChDT4LjJ6DRvBJ0QC2Sal2DovE6ibI9atvkyNO3p-Pych7T6YLQEPpQPcsGMNMEzz_StLSStb-0y_3dSEHMnuaIvkcz2QjTgJsEHWpySWiK8bunQiUaUfa4_wDmU_1t2_Tb9MfUPojnHCng_Hy0]--></g></svg>