<svg xmlns="http://www.w3.org/2000/svg" xmlns:xlink="http://www.w3.org/1999/xlink" contentStyleType="text/css" data-diagram-type="DESCRIPTION" height="472px" preserveAspectRatio="none" style="width:1200px;height:472px;background:#FFFFFF;" version="1.1" viewBox="0 0 1200 472" width="1200px" zoomAndPan="magnify"><title>ShiftSwap &#8212; Use Case Diagram &#8212; Substitution detail (UC-04, UC-04a, UC-05, UC-06, UC-08, UC-11, UC-12)</title><defs/><g><text fill="#000000" font-family="Helvetica" font-size="14" font-weight="bold" lengthAdjust="spacing" textLength="707.1436" x="242.9282" y="20.7803">ShiftSwap &#8212; Use Case Diagram &#8212; Substitution detail (UC-04, UC-04a, UC-05, UC-06, UC-08, UC-11, UC-12)</text><!--cluster Boundary--><g class="cluster" data-entity="Boundary" data-source-line="44" data-uid="ent0007" id="cluster_Boundary"><rect fill="#FFFFFF" height="300" rx="2.5" ry="2.5" style="stroke:#1C2230;stroke-width:1;" width="910" x="284" y="47"/><text fill="#000000" font-family="Helvetica" font-size="12" font-weight="bold" lengthAdjust="spacing" textLength="58.002" x="709.999" y="58.2402">ShiftSwap</text></g><!--entity Spacer--><g class="entity" data-entity="Spacer" data-source-line="36" data-uid="ent0002" id="entity_Spacer"><ellipse cx="19.5" cy="188.5" fill="#FFFFFF" rx="8" ry="8" style="stroke:#FFFFFF;stroke-width:0.5;"/><path d="M19.5,196.5 L19.5,223.5 M6.5,204.5 L32.5,204.5 M19.5,223.5 L6.5,238.5 M19.5,223.5 L32.5,238.5" fill="none" style="stroke:#FFFFFF;stroke-width:0.5;"/></g><!--entity A1--><g class="entity" data-entity="A1" data-source-line="38" data-uid="ent0003" id="entity_A1"><ellipse cx="98.3389" cy="182.5" fill="#FFFFFF" rx="8" ry="8" style="stroke:#1C2230;stroke-width:0.5;"/><path d="M98.3389,190.5 L98.3389,217.5 M85.3389,198.5 L111.3389,198.5 M98.3389,217.5 L85.3389,232.5 M98.3389,217.5 L111.3389,232.5" fill="none" style="stroke:#1C2230;stroke-width:0.5;"/><text fill="#000000" font-family="Helvetica" font-size="12" lengthAdjust="spacing" textLength="56.6777" x="70" y="243.2402">A1 Worker</text></g><!--entity A3--><g class="entity" data-entity="A3" data-source-line="39" data-uid="ent0004" id="entity_A3"><ellipse cx="209.6797" cy="139.5" fill="#FFFFFF" rx="8" ry="8" style="stroke:#1C2230;stroke-width:0.5;"/><path d="M209.6797,147.5 L209.6797,174.5 M196.6797,155.5 L222.6797,155.5 M209.6797,174.5 L196.6797,189.5 M209.6797,174.5 L222.6797,189.5" fill="none" style="stroke:#1C2230;stroke-width:0.5;"/><text fill="#000000" font-family="Helvetica" font-size="12" lengthAdjust="spacing" textLength="91.3594" x="164" y="200.2402">A3 System Clock</text></g><!--entity A2--><g class="entity" data-entity="A2" data-source-line="54" data-uid="ent0015" id="entity_A2"><ellipse cx="388.1777" cy="403.5" fill="#FFFFFF" rx="8" ry="8" style="stroke:#1C2230;stroke-width:0.5;"/><path d="M388.1777,411.5 L388.1777,438.5 M375.1777,419.5 L401.1777,419.5 M388.1777,438.5 L375.1777,453.5 M388.1777,438.5 L401.1777,453.5" fill="none" style="stroke:#1C2230;stroke-width:0.5;"/><text fill="#000000" font-family="Helvetica" font-size="12" lengthAdjust="spacing" textLength="53.3555" x="361.5" y="464.2402">A2 Owner</text></g><g class="entity" data-entity="UC11" data-source-line="45" data-uid="ent0008" id="entity_UC11"><ellipse cx="387.9643" cy="159.9558" fill="#FFFFFF" rx="78.4643" ry="28.4558" style="stroke:#E9A23B;stroke-width:0.5;"/><text fill="#1C2230" font-family="Helvetica" font-size="12" lengthAdjust="spacing" textLength="34.6758" x="370.6264" y="149.1961">UC-11</text><text fill="#1C2230" font-family="Helvetica" font-size="12" lengthAdjust="spacing" textLength="80.7129" x="347.6079" y="161.1961">Expire overdue</text><text fill="#1C2230" font-family="Helvetica" font-size="12" lengthAdjust="spacing" textLength="94.7227" x="340.603" y="173.1961">substitute request</text></g><g class="entity" data-entity="UC12" data-source-line="46" data-uid="ent0009" id="entity_UC12"><ellipse cx="387.9643" cy="234.9558" fill="#FFFFFF" rx="78.4643" ry="28.4558" style="stroke:#E9A23B;stroke-width:0.5;"/><text fill="#1C2230" font-family="Helvetica" font-size="12" lengthAdjust="spacing" textLength="34.6758" x="370.6264" y="224.1961">UC-12</text><text fill="#1C2230" font-family="Helvetica" font-size="12" lengthAdjust="spacing" textLength="62.7012" x="356.6137" y="236.1961">Cancel own</text><text fill="#1C2230" font-family="Helvetica" font-size="12" lengthAdjust="spacing" textLength="94.7227" x="340.603" y="248.1961">substitute request</text></g><g class="entity" data-entity="UC04" data-source-line="47" data-uid="ent0010" id="entity_UC04"><ellipse cx="827.7664" cy="234.9706" fill="#FFFFFF" rx="81.7664" ry="19.9706" style="stroke:#E9A23B;stroke-width:0.5;"/><text fill="#1C2230" font-family="Helvetica" font-size="12" lengthAdjust="spacing" textLength="34.6758" x="810.4286" y="230.2108">UC-04</text><text fill="#1C2230" font-family="Helvetica" font-size="12" lengthAdjust="spacing" textLength="99.3926" x="778.0702" y="242.2108">Request substitute</text></g><g class="entity" data-entity="UC05" data-source-line="48" data-uid="ent0011" id="entity_UC05"><ellipse cx="387.8392" cy="92.0678" fill="#FFFFFF" rx="95.8392" ry="21.5678" style="stroke:#E9A23B;stroke-width:0.5;"/><text fill="#1C2230" font-family="Helvetica" font-size="12" lengthAdjust="spacing" textLength="34.6758" x="370.5013" y="87.3081">UC-05</text><text fill="#1C2230" font-family="Helvetica" font-size="12" lengthAdjust="spacing" textLength="129.6914" x="322.9935" y="99.3081">Respond (accept / can't)</text></g><g class="entity" data-entity="UC04a" data-source-line="49" data-uid="ent0012" id="entity_UC04a"><ellipse cx="1101.588" cy="234.9558" fill="#FFFFFF" rx="84.588" ry="28.4558" style="stroke:#E9A23B;stroke-width:0.5;"/><text fill="#1C2230" font-family="Helvetica" font-size="12" lengthAdjust="spacing" textLength="41.3496" x="1080.9132" y="224.1961">UC-04a</text><text fill="#1C2230" font-family="Helvetica" font-size="12" lengthAdjust="spacing" textLength="64.0371" x="1069.5694" y="236.1961">Find eligible</text><text fill="#1C2230" font-family="Helvetica" font-size="12" lengthAdjust="spacing" textLength="103.3828" x="1049.8966" y="248.1961">candidates (BR-01)</text></g><g class="entity" data-entity="UC06" data-source-line="50" data-uid="ent0013" id="entity_UC06"><ellipse cx="388.0985" cy="309.9558" fill="#FFFFFF" rx="76.0985" ry="28.4558" style="stroke:#E9A23B;stroke-width:0.5;"/><text fill="#1C2230" font-family="Helvetica" font-size="12" lengthAdjust="spacing" textLength="34.6758" x="370.7607" y="299.1961">UC-06</text><text fill="#1C2230" font-family="Helvetica" font-size="12" lengthAdjust="spacing" textLength="91.377" x="342.4101" y="311.1961">Approve or reject</text><text fill="#1C2230" font-family="Helvetica" font-size="12" lengthAdjust="spacing" textLength="60.7031" x="357.747" y="323.1961">substitution</text></g><g class="entity" data-entity="UC08" data-source-line="51" data-uid="ent0014" id="entity_UC08"><ellipse cx="827.7924" cy="309.9558" fill="#FFFFFF" rx="97.7924" ry="28.4558" style="stroke:#1C2230;stroke-width:0.5;"/><text fill="#1C2230" font-family="Helvetica" font-size="12" lengthAdjust="spacing" textLength="34.6758" x="810.4545" y="299.1961">UC-08</text><text fill="#1C2230" font-family="Helvetica" font-size="12" lengthAdjust="spacing" textLength="122.0566" x="766.764" y="311.1961">Compute weekly hours</text><text fill="#1C2230" font-family="Helvetica" font-size="12" lengthAdjust="spacing" textLength="118.084" x="768.7504" y="323.1961">and holiday allowance</text></g><g class="link" data-entity-1="A1" data-entity-2="UC04" data-uid="lnk17" id="link_A1_UC04"><path d="M127.0136,239.8894 C160.3495,273.6726 220.0448,326.7279 284,348 C374.5342,378.1126 636.1937,371.9363 712,314 C727.8119,301.9155 715.6471,286.7856 730,273 C737.4352,265.8587 746.3682,260.0136 755.7636,255.2415" fill="none" style="stroke:#1C2230;stroke-width:1;"/></g><g class="link" data-entity-1="A1" data-entity-2="UC05" data-uid="lnk18" id="link_A1_UC05"><path d="M116.8918,173.9528 C127.788,155.3567 143.6431,134.0924 164,122 C202.0355,99.4062 250.0602,90.9315 291.7923,88.5055" fill="none" style="stroke:#1C2230;stroke-width:1;"/></g><g class="link" data-entity-1="A1" data-entity-2="UC12" data-uid="lnk19" id="link_A1_UC12"><path d="M127.0667,212.3971 C168.668,216.0146 249.0449,223.0039 309.4588,228.2573" fill="none" style="stroke:#1C2230;stroke-width:1;"/></g><g class="link" data-entity-1="A3" data-entity-2="UC11" data-uid="lnk20" id="link_A3_UC11"><path d="M255.0384,165.2336 C271.4801,164.5815 290.63,163.822 309.1591,163.0872" fill="none" style="stroke:#1C2230;stroke-width:1;"/></g><g class="link" data-entity-1="A2" data-entity-2="UC06" data-uid="lnk21" id="link_A2_UC06"><path d="M388,394.6055 C388,375.9879 388,357.3702 388,338.7526" fill="none" style="stroke:#1C2230;stroke-width:1;"/></g><g class="link" data-entity-1="A2" data-entity-2="UC08" data-uid="lnk22" id="link_A2_UC08"><path d="M414.5219,425.9063 C437.3861,421.4268 471.8628,414.8786 502,410 C595.0083,394.944 623.3381,412.8795 712,381 C739.8207,370.9967 768.114,353.6408 789.6751,338.5932" fill="none" style="stroke:#1C2230;stroke-width:1;"/></g><g class="link" data-entity-1="UC04" data-entity-2="UC04a" data-uid="lnk23" id="link_UC04_UC04a"><polygon fill="#1C2230" points="1016.5325,235,1007.5325,231,1011.5325,235,1007.5325,239,1016.5325,235" style="stroke:#1C2230;stroke-width:1;"/><path d="M910.0912,235 C943.6857,235 976.6417,235 1010.5325,235" fill="none" style="stroke:#1C2230;stroke-width:1;stroke-dasharray:7.0,7.0;"/><text fill="#000000" font-family="Helvetica" font-size="12" lengthAdjust="spacing" textLength="51.375" x="946" y="230.2402">&#171;include&#187;</text></g><g class="link" data-entity-1="UC06" data-entity-2="UC08" data-uid="lnk24" id="link_UC06_UC08"><polygon fill="#1C2230" points="729.6831,310,720.6831,306,724.6831,310,720.6831,314,729.6831,310" style="stroke:#1C2230;stroke-width:1;"/><path d="M464.2949,310 C537.6722,310 643.5854,310 723.6831,310" fill="none" style="stroke:#1C2230;stroke-width:1;stroke-dasharray:7.0,7.0;"/><text fill="#000000" font-family="Helvetica" font-size="12" lengthAdjust="spacing" textLength="51.375" x="581.5" y="305.2402">&#171;include&#187;</text></g><g class="link" data-entity-1="UC11" data-entity-2="UC04" data-uid="lnk25" id="link_UC11_UC04"><polygon fill="#1C2230" points="745.958,220.8688,737.7739,215.3898,741.0315,220.0144,736.4069,223.2721,745.958,220.8688" style="stroke:#1C2230;stroke-width:1;"/><path d="M466.6781,173.1479 C532.1132,184.2424 628.1911,200.5769 712,215 C722.9843,216.8903 728.6451,217.8663 740.0463,219.8436" fill="none" style="stroke:#1C2230;stroke-width:1;stroke-dasharray:7.0,7.0;"/><text fill="#000000" font-family="Helvetica" font-size="12" lengthAdjust="spacing" textLength="49.377" x="582.5449" y="132.2402">&#171;extend&#187;</text><path d="M507,141 L507,175 L707,175 L707,151 L697,141 L507,141" fill="#FFFEF2" style="stroke:#1C2230;stroke-width:0.5;"/><path d="M697,141 L697,151 L707,151 L697,141" fill="#FFFEF2" style="stroke:#1C2230;stroke-width:0.5;"/><text fill="#000000" font-family="Helvetica" font-size="12" lengthAdjust="spacing" textLength="179.4668" x="513" y="155.2402">extension point: deadline reached</text><text fill="#000000" font-family="Helvetica" font-size="12" lengthAdjust="spacing" textLength="156.1055" x="513" y="167.2402">with no approved acceptance</text></g><g class="link" data-entity-1="UC12" data-entity-2="UC04" data-uid="lnk26" id="link_UC12_UC04"><polygon fill="#1C2230" points="745.7473,235,736.7473,231,740.7473,235,736.7473,239,745.7473,235" style="stroke:#1C2230;stroke-width:1;"/><path d="M466.549,235 C545.0528,235 659.9417,235 739.7473,235" fill="none" style="stroke:#1C2230;stroke-width:1;stroke-dasharray:7.0,7.0;"/><text fill="#000000" font-family="Helvetica" font-size="12" lengthAdjust="spacing" textLength="49.377" x="582.5" y="230.2402">&#171;extend&#187;</text></g><!--SRC=[fLJ1Rjj64BtpAwRgmJPG9I9b6wgR6f1L6pqrG0IZXoY7CJaYjrhkRdUNLjGWG3yY_z3_wAVaIpAx92Mv2LCKfGwxs9bvCthpPhun5iiQGU9EDnvSJHuL9cuZb46BDHIqnaRwEwtyBrWJZ7uc-KXUv3ZwijTI_46GPaT6Ls6XjqALi4RfwCZoWFccjBfHnK9BRU7Rk_WTUSojrTlEc2woR3f9Ab4GE4-MjD-POxZ6KOwEu5q2S3C0pHPj2x9FCG52wK_Vtd-E_E85rWzahw__IuhRx-VPzEPVKs3ksV9kiC2XRCSObd9kNodfV-8exOTPlBtB1i3V9ucajGUlmOgoyb28K97GAacyy5pMiX9hlzoYWOz_Ve1xxjKYDEmdWMN86nwNpODZvoQ4iQuy2WcdzulnvFmxY0UsvqLxNBR7B1vfsXxPMPASW3EOamtLR8XChsrOMrr3BeKnGPA-8lOmjNQ-RS69Wugm02nHA7uC3ZcgHtH0HKb9swSH__XbsQReEFn12aLNtTtJMz_TapvediAlscx8nk1vkd-VmdB7agvX8NM-QQtJ9EdWnwzPymMfD-Fh4CGeJrxOyT3uqPxYY78JUeTs5xlPpySeKhLIjsyDDmZq8zcYePLoFVN4Ilgz8USZnlqYJM4l_N_YP2krG9MJ1BrLNyF81Z4cvolrgdM6GtmNDpaVZhi8SSveLS0fvZaP3yz3iqxyMHzzyPMik59tWcD9Yb8yI6Q0OmjHe2S7fpUlnfDqZtEEmq2NApKtnZAFmDsqz1jtuuW95dAFSZaCCcCUTMq2SLkYZTn1fHlhLefBuglaidQ0KkfjOBi7d8MXwrMKmSkjwiML9S7yL2bP68iVmzUj6tHEvm93YQurH7MDupy-N2_sLrxiBDRsoahCEeVBmtLso25KBXjUri-1Pu7uR_JZx0pbyFTVqxCkP-poisVN7T5Np58Nopn5sZhZx3CRIxCFZBOs4vlY3kCLmZEvOQxZkmixnMYX_1NNWaMOL-uNvXKLxBCLlkBT1zWsatT0r5JWEmdb1yWaAlcBAJy1]--></g></svg>